/* XPM */
static char *result[] = {
/* columns rows colors chars-per-pixel */
"50 50 156 2 ",
"   c #000000",
".  c #0C0100",
"X  c #0E0D0C",
"o  c #140403",
"O  c #1A0302",
"+  c #150A06",
"@  c #1B0906",
"#  c #170C09",
"$  c #1B0D0A",
"%  c #11100F",
"&  c #1C120D",
"*  c #141313",
"=  c #1D1613",
"-  c #1D1A14",
";  c #1C1B19",
":  c #290302",
">  c #290C09",
",  c #370302",
"<  c #3F0000",
"1  c #320D09",
"2  c #22110D",
"3  c #2D120D",
"4  c #35100C",
"5  c #211611",
"6  c #231A15",
"7  c #221F1C",
"8  c #331510",
"9  c #3D1C17",
"0  c #23221E",
"q  c #2A271F",
"w  c #262523",
"e  c #292723",
"r  c #2C2A25",
"t  c #2D2C2A",
"y  c #322620",
"u  c #312921",
"i  c #312E29",
"p  c #34322C",
"a  c #3B352B",
"s  c #3D392E",
"d  c #353330",
"f  c #393732",
"g  c #3D3B36",
"h  c #3F3E38",
"j  c #420000",
"k  c #4D0000",
"l  c #550000",
"z  c #5A0000",
"x  c #5E0906",
"c  c #481611",
"v  c #421D17",
"b  c #461D19",
"n  c #551A15",
"m  c #561F19",
"M  c #630101",
"N  c #6B0000",
"B  c #620906",
"V  c #620B0B",
"C  c #6D0E0C",
"Z  c #730000",
"A  c #790000",
"S  c #770A06",
"D  c #700A08",
"F  c #6D120D",
"G  c #6F1511",
"H  c #45241D",
"J  c #49251F",
"K  c #55231C",
"L  c #5A231C",
"P  c #4C2921",
"I  c #5C2921",
"U  c #40382E",
"Y  c #4D3A2F",
"T  c #413D34",
"R  c #4C3D32",
"E  c #513E33",
"W  c #434135",
"Q  c #4C4035",
"!  c #45433A",
"~  c #49463D",
"^  c #4D493D",
"/  c #504035",
"(  c #514B3E",
")  c #4A4740",
"_  c #4D4B42",
"`  c #514E43",
"'  c #555146",
"]  c #5A5445",
"[  c #565348",
"{  c #5A564A",
"}  c #5E594B",
"|  c #625C4D",
" . c #635E51",
".. c #666252",
"X. c #6C6554",
"o. c #6F6857",
"O. c #6F6B5A",
"+. c #706957",
"@. c #726B59",
"#. c #74705F",
"$. c #79725F",
"%. c #767361",
"&. c #797663",
"*. c #7E7A66",
"=. c #7F7D69",
"-. c #850000",
";. c #890000",
":. c #810C08",
">. c #950000",
",. c #9C0201",
"<. c #8F130E",
"1. c #95110D",
"2. c #A50000",
"3. c #AB0100",
"4. c #AD0E0E",
"5. c #B50000",
"6. c #BD0000",
"7. c #B91414",
"8. c #C30000",
"9. c #CA0000",
"0. c #C50A0A",
"q. c #D40202",
"w. c #DD0000",
"e. c #C11212",
"r. c #E30000",
"t. c #EC0101",
"y. c #E90F0F",
"u. c #F40000",
"i. c #FF0000",
"p. c #F70D0D",
"a. c #FE0B0B",
"s. c #F51717",
"d. c #FF1414",
"f. c #FF1A1A",
"g. c #FF2525",
"h. c #FF2B2B",
"j. c #FF3E3E",
"k. c #807C67",
"l. c #817D69",
"z. c #FF4545",
"x. c #FF4B4B",
"c. c #FF5858",
"v. c #FF6363",
"b. c #FF6A6A",
"n. c #FF7474",
"m. c #FF7878",
"M. c #85836D",
"N. c #898670",
"B. c #8E8C75",
"V. c #908F76",
"C. c #939279",
"Z. c #98967C",
"A. c #FF8383",
"S. c #FF8888",
"D. c #FF9595",
"F. c #FF9D9D",
/* pixels */
"B.B.C.B.B.B.B.B.C._ w w  .Z.B.B.B.B.B.V.V.B.Z.{ t =.{ q p ..M.V.V.B.V.N.e _ $.N.V.V.V.V.V.V.V.Z.{ w ",
"B.l.O.=.l.l.=.=.M. .) t ` &.=.l.=.l.*.#.#.#.&.) t *.[ e p { $.$.#.l.&.O.) } @.*.l.l.$.#.#.#.#.%._ t ",
"V.O.) X.+.+.o.+.o.@.@.t g ` X.@.o.@. .) ) ` ` d t O._ t p ~ o.' ' @.] _ #.#.+.o.o.@.' ~ _ _ _ _ g t ",
"V.%.) o.@.+.@.+.@.@.o.) { O.O.@.@.@.@.+.{ ) ` i ; 7 t T { ..@.o.o.@.@.+.@.@.@.@.@.@.o.X.O.{ _ [ h t ",
"V.&.{ +.@.@.@.@.@.@.+.'  .$.@.@.@.@.@.@. .[ _ e % - p ' X.@.@.@.@.@.@.@.@.@.@.@.@.@.@.@.@...[ ' g t ",
"V.l.+.@.@.@.@.@.@.@.o._ | @.@.+.+.@.@.@.$.o.` e X q ( o.@.@.@.@.@.@.@.@.+.@.@.+.@.@.@.@.+.@.o.' g t ",
"%.@.+.@.@.@.@.@.@.@.+.X.| [ o.@.@.@.o.[ { [ _ w X p ( ( o.@.@.@.@.@.@.@.@.@.@.@.@.@.@.@.@.@.o.' h t ",
"%.@.@.+.@.@.@.@.@.@.@.+. .` X.X.o... .) ` ` _ w % s ' ^ o.@.o.X.X.+.X.X.X.+.+.+.@.@.@.+.@.o...' g t ",
"V.l.o.@.@.@.+.@.@.+.@.X.| ] ] ] ] ! g W ) _ ) r % s | ..O...} ( ] ] ] ] ] | X.+.@.@.@.@.#.{ _ ' h t ",
"V.l.@.@.@.@.@.@.@.@.X.| ( a a a s e 0 i _ } _ r % f | ..X.} ^ s a a a p s ^ | +.@.O.@.@.#.{ _ ' g t ",
"V.l.X.@.@.@.@.@.@.@. .] U 2 O @ $ O o 7 ^ | ~ e X p { } | ( u + O @ O O 2 a ' X.o.O.@.@.O.{ ` ' f t ",
"V.#._ X.@.@.@.@.X.| ( E L M B V x x l c Y ^ g ; X r W p ( Q c l z M M M M L E ( | X.@.@.@.} _ ' h t ",
"V.&.| o.@.@.@.+.| ( a L 1.6.0.e.7.4.,.:.L y 0 %   - e 7 q n :.,.5.6.6.8.8.1.L a ^ | +.X. .[ _ ' h t ",
"B.l.@.@.@.o.+. .( U 4 Z 8.u.a.d.s.y.q.3.Z , O o o O o O , Z 5.q.r.u.i.i.u.8.Z 4 U ' X. ._ ` ' ' g t ",
"@.@.o.@.@.X.| ` R H M >.w.i.a.a.d.a.y.q.>.N k k k k k k N >.9.t.i.i.i.i.i.r.2.Z I R ] ] ~ _ ` ' g t ",
"&.$.@.@.o.| ^ a H D ,.8.r.i.i.a.i.i.i.r.8.2.>.>.>.>.>.>.2.9.r.i.i.i.i.i.i.u.r.8.1.m a Q ` } { ' g t ",
"V.k.o.+...' a 3 z >.8.r.u.i.i.i.i.i.i.u.r.q.9.9.9.9.9.9.q.r.i.i.i.i.a.d.d.d.a.u.8.Z 8 U ] X.X.` h t ",
"V.k...| ( Q b M ;.6.r.u.i.i.i.i.i.i.i.i.u.r.r.r.r.r.r.r.r.u.i.i.i.i.d.j.c.x.h.i.r.2.A L E ! ! ` f t ",
"B.*.| Q a v D ,.8.w.u.i.i.i.i.i.i.i.i.i.i.u.u.u.u.u.u.u.u.i.i.i.i.i.h.b.F.A.z.a.u.r.9.1.L e p ~ g t ",
"V.*.| T & j -.8.w.u.i.i.i.i.i.i.i.i.i.i.i.i.i.i.i.i.i.i.i.i.i.i.i.i.h.b.F.D.v.h.d.a.i.5.l $ r ~ f t ",
"V.#.! s o j ;.9.r.u.i.i.i.i.i.i.i.i.i.i.i.i.i.i.i.i.i.i.i.i.i.i.i.i.f.z.b.m.m.v.x.h.a.6.z o w r d t ",
"B.o.g s # j ;.8.r.u.i.i.i.i.i.i.i.i.i.i.i.i.i.i.i.i.i.i.i.i.i.i.i.i.a.d.g.x.A.F.A.z.p.5.z o w w t t ",
"Z.$.T r # j -.8.w.u.i.i.i.i.i.i.i.i.i.i.i.i.i.i.i.i.i.i.i.i.i.i.i.i.i.i.i.h.n.F.S.z.s.5.z o * w t d ",
"{ ~ t 0 o j -.8.r.u.i.i.i.i.i.i.i.i.i.i.i.i.i.i.i.i.i.i.i.i.i.i.i.i.i.i.i.f.z.v.c.h.p.5.z o ; w t t ",
"t t e ; . j -.8.r.u.i.i.i.i.i.i.i.i.i.i.i.i.i.i.i.i.i.i.i.i.i.i.i.i.i.i.i.a.d.g.f.d.i.5.l o ; r t t ",
"N.M.#.` - j -.8.w.u.i.i.i.i.i.i.i.i.i.i.i.i.i.i.i.i.i.i.i.i.i.i.i.i.i.i.i.i.i.i.i.i.u.5.z 6 _ *.[ t ",
"V.=.} ~ - j ;.8.r.u.i.i.i.i.i.i.i.i.i.i.i.i.i.i.i.i.i.i.i.i.i.i.i.i.i.i.i.i.i.i.i.i.u.5.z = T ..) t ",
"V.O.g s & j -.8.w.u.i.i.i.i.i.i.i.i.i.i.i.i.i.i.i.i.i.i.i.i.i.i.i.i.i.i.i.i.i.i.i.i.u.5.z @ e T f t ",
"V.@.g s & j ;.8.w.u.i.i.i.i.i.i.i.i.i.i.i.i.i.i.i.i.i.i.i.i.i.i.i.i.i.i.i.i.i.i.i.i.u.5.z $ r ! f t ",
"V.#.! W & j ;.8.w.u.i.i.i.i.i.i.i.i.i.i.i.i.i.i.i.i.i.i.i.i.i.i.i.i.i.i.i.i.i.i.i.i.u.5.z $ i ! f t ",
"V.*.| U & j -.8.r.u.i.i.i.i.i.i.i.i.i.i.i.i.i.i.i.i.i.i.i.i.i.i.i.i.i.i.i.i.i.i.i.i.i.5.l = g h g t ",
"V.*.] g & j ;.8.r.u.i.i.i.i.i.i.i.i.i.i.i.i.i.i.i.i.i.i.i.i.i.i.i.i.i.i.i.i.i.i.i.i.u.5.z & f ) f t ",
"N.&.] s o j ;.9.r.u.i.i.i.i.i.i.i.i.i.i.i.i.i.i.i.i.i.i.i.i.i.i.i.i.i.i.i.i.i.i.i.i.i.6.z o s ! g t ",
"X.X.| W = j -.8.w.u.i.i.i.i.i.i.i.i.i.i.i.i.i.i.i.i.i.i.i.i.i.i.i.i.i.i.i.i.i.i.i.i.u.5.z 5 f ! g t ",
"M.$.| ( a H G ,.6.w.u.i.i.i.i.i.i.i.i.i.i.i.i.i.i.i.i.i.i.i.i.i.i.i.i.i.i.i.i.i.u.w.8.<.K a ^ ^ f t ",
"V.k.| | ] Q J x ;.5.w.t.u.i.i.i.i.i.i.i.i.i.i.i.i.i.i.i.i.i.i.i.i.i.i.i.i.i.i.i.w.2.S I / ' ] _ g t ",
"V.#.^ X.X.' s > z >.9.r.u.i.i.i.i.i.i.i.i.i.i.i.i.i.i.i.i.i.i.i.i.i.i.i.i.i.i.u.8.Z 1 s ] ' _ ' g t ",
"V.$.} o.@.] s + j ;.9.r.u.i.i.i.i.i.i.i.i.i.i.i.i.i.i.i.i.i.i.i.i.i.i.i.i.i.i.i.6.z @ a ( ' _ ' g t ",
"B.k.@.@.o.} s . j >.9.r.u.i.i.i.i.i.i.i.i.i.i.i.i.i.i.i.i.i.i.i.i.i.i.i.i.i.i.i.6.z . p g _ ` [ h t ",
"{  .@.@.o.] s 5 j ;.6.w.u.i.i.i.i.i.i.i.i.i.i.i.i.i.i.i.i.i.i.i.i.i.i.i.i.i.i.u.5.z 5 a h _ _ ' f t ",
"g ] $.+.o.| ( a J F >.5.w.u.u.u.u.i.i.i.i.i.i.i.i.i.i.i.i.i.i.i.i.i.i.i.i.u.w.6.<.K U ^ ( } { [ h t ",
"w ~ $.+.+.X.| ] Q J l -.5.r.r.r.r.t.i.i.i.i.i.i.i.i.i.i.i.i.i.i.i.i.i.i.i.w.2.N K / ] | X.@.o.' g t ",
"*.%.@.@.@.@.+.X.' s 3 z >.8.8.8.9.w.t.i.i.i.i.i.i.i.i.i.i.i.i.i.u.u.i.i.u.6.Z 8 s ] X.+.+.@.X.[ g t ",
"C.=...+.@.@.@.+. .^ s H F -.;.;.>.5.w.u.u.u.t.u.u.t.u.t.u.u.u.r.9.6.5.5.5.<.K U ^  .o.+.@.o. .' h t ",
"B.@.) o.#.@.@.@.X. .] Q H j < j l -.6.w.r.r.w.w.w.r.w.w.r.r.w.8.>.N z l z K E ]  .o.O.O.@.{ _ [ g t ",
"V.%._ { { } o.@.#.| [ ' s - . # > x ,.8.8.8.6.6.6.6.8.6.8.8.6.,.B : o o $ a { ..O.@.@.X.} [ _ [ h t ",
"B.%._ _ _ _  .o.X.{ _ } ^ s g p e b C -.-.-.-.-.-.-.-.-.-.-.-.G P - 0 e t T  . .o.X.O. .` ` ' _ g t ",
"Z.&._ [ ' ' ' ' ' [ ' ` ^ ! ! ! T a 9 < j < < < < < < < < < < 9 p ! t e T ) _ ' ' ' ' ' ' [ _ t d t ",
"[ _ g h g g h g g h h g f g g g d t ; . . . . . . . . . . . . = e f d t g g g g g g h g h g g t t t ",
"w t t t t t t t t t t t t t t t t 7 %                         * 7 t t i t t t t t t t t t t t t t d "
};
