/* XPM */
static char *result[] = {
/* columns rows colors chars-per-pixel */
"50 50 250 2 ",
"   c #4C290C",
".  c #52290E",
"X  c #492A19",
"o  c #572C15",
"O  c #573211",
"+  c #583615",
"@  c #5C3414",
"#  c #5C3519",
"$  c #652E0F",
"%  c #63320D",
"&  c #67370C",
"*  c #652D15",
"=  c #6A2E17",
"-  c #652D1C",
";  c #643412",
":  c #6A3414",
">  c #633D11",
",  c #6C3A14",
"<  c #63321C",
"1  c #6A321C",
"2  c #663C1B",
"3  c #6D3E1D",
"4  c #733D1B",
"5  c #573825",
"6  c #4E3B31",
"7  c #683A23",
"8  c #723B22",
"9  c #6C461C",
"0  c #73431C",
"q  c #7B461E",
"w  c #784B1A",
"e  c #7C4A1D",
"r  c #7E561F",
"t  c #5B452A",
"y  c #524039",
"u  c #664729",
"i  c #724324",
"p  c #764927",
"a  c #7C4A24",
"s  c #7D4C2B",
"d  c #66522A",
"f  c #7D532A",
"g  c #785429",
"h  c #624A34",
"j  c #694937",
"k  c #634B3A",
"l  c #774B34",
"z  c #6D5638",
"x  c #795636",
"c  c #765B3E",
"v  c #7B5A3C",
"b  c #7C623A",
"n  c #6A5746",
"m  c #6C544F",
"M  c #765B42",
"N  c #7D5D42",
"B  c #795E4C",
"V  c #7A634A",
"C  c #726258",
"Z  c #7F7357",
"A  c #7E715A",
"S  c #686668",
"D  c #7A6D66",
"F  c #777777",
"G  c #834D24",
"H  c #814D29",
"J  c #855226",
"K  c #885425",
"L  c #83552B",
"P  c #8A562D",
"I  c #835A2D",
"U  c #8B592E",
"Y  c #945E2C",
"T  c #995F2B",
"R  c #845332",
"E  c #8C5632",
"W  c #845B33",
"Q  c #8B5D33",
"!  c #84563B",
"~  c #8D573D",
"^  c #835A3C",
"/  c #8A5B3C",
"(  c #965E33",
")  c #8C632B",
"_  c #95672A",
"`  c #96652D",
"'  c #9A642C",
"]  c #8C6234",
"[  c #8A633D",
"{  c #956333",
"}  c #9A6433",
"|  c #966933",
" . c #9B6B33",
".. c #93633A",
"X. c #9A653A",
"o. c #9D6D3A",
"O. c #9D7237",
"+. c #A1652B",
"@. c #A2692E",
"#. c #A66B34",
"$. c #A16D3C",
"%. c #A7773B",
"&. c #A2733C",
"*. c #875740",
"=. c #8D5D41",
"-. c #915F43",
";. c #896647",
":. c #926342",
">. c #9D6D43",
",. c #966948",
"<. c #9E7443",
"1. c #94704C",
"2. c #9A7749",
"3. c #9C744D",
"4. c #856A53",
"5. c #836B55",
"6. c #836A5A",
"7. c #827256",
"8. c #81725A",
"9. c #8B7358",
"0. c #9A7857",
"q. c #A26F41",
"w. c #A47443",
"e. c #A57E43",
"r. c #AA7B45",
"t. c #A3754A",
"y. c #A7794B",
"u. c #AC7C49",
"i. c #B07F4B",
"p. c #A67D56",
"a. c #AB7C53",
"s. c #A47E5B",
"d. c #B17E51",
"f. c #857464",
"g. c #897A67",
"h. c #85756A",
"j. c #89756B",
"k. c #93786C",
"l. c #857E79",
"z. c #A57861",
"x. c #9C804F",
"c. c #A98347",
"v. c #AB824A",
"b. c #B6864A",
"n. c #A58354",
"m. c #AC8455",
"M. c #A98658",
"N. c #AC8A5C",
"B. c #B58453",
"V. c #B38A5D",
"C. c #B98959",
"Z. c #AF925D",
"A. c #B5915A",
"S. c #BA955C",
"D. c #8A837B",
"F. c #998970",
"G. c #97877A",
"H. c #AB8562",
"J. c #AD8B65",
"K. c #AD8B69",
"L. c #B38662",
"P. c #B38A63",
"I. c #B78965",
"U. c #B28C6B",
"Y. c #B79564",
"T. c #BC9B64",
"R. c #B3916A",
"E. c #A58979",
"W. c #B29674",
"Q. c #BDA274",
"!. c #C18F66",
"~. c #C39968",
"^. c #C49B6D",
"/. c #C89C74",
"(. c #C5A46C",
"). c #C9A879",
"_. c #D3AA79",
"`. c #D4B17B",
"'. c #D8B37B",
"]. c #887F81",
"[. c #7F8485",
"{. c #7E838B",
"}. c #838484",
"|. c #898687",
" X c #888987",
".X c #84858A",
"XX c #89898A",
"oX c #958686",
"OX c #9B8C83",
"+X c #9D9889",
"@X c #858893",
"#X c #968D92",
"$X c #9B9898",
"%X c #A2968D",
"&X c #A79988",
"*X c #A59993",
"=X c #A69996",
"-X c #B29C93",
";X c #9DA086",
":X c #A6A48E",
">X c #AAA58C",
",X c #A7A690",
"<X c #AEA992",
"1X c #BCA697",
"2X c #B5B49D",
"3X c #A79EA3",
"4X c #9FA2A3",
"5X c #9DA1AA",
"6X c #A4A5A4",
"7X c #B8ADAB",
"8X c #B5B2AE",
"9X c #A9A8B2",
"0X c #D7AB82",
"qX c #CEB188",
"wX c #D8B389",
"eX c #C9B395",
"rX c #E3B795",
"tX c #C3B5AA",
"yX c #C7C7AE",
"uX c #D8C7AC",
"iX c #DED5AF",
"pX c #CFCEB4",
"aX c #CDC2BF",
"sX c #D0CFB5",
"dX c #DECDB2",
"fX c #D8CFB8",
"gX c #DED2B5",
"hX c #D8D6BB",
"jX c #DCDCBC",
"kX c #E2CBB7",
"lX c #E1CEB4",
"zX c #E2D0B5",
"xX c #E3D2BA",
"cX c #E1DBBC",
"vX c #CCC5C3",
"bX c #DED5C7",
"nX c #DBDDC1",
"mX c #D4D5D8",
"MX c #E1DCC3",
"NX c #E5DCCF",
"BX c #E6DDD6",
"VX c #E8DED9",
"CX c #E9E3D9",
"ZX c #D8D8E3",
"AX c #DEE6E5",
"SX c #E2E9E6",
"DX c #E5E5E8",
"FX c #E3E9EB",
"GX c #F3EFED",
"HX c #FAF9FA",
/* pixels */
"jXjXjXjXjXjXjXnXnXnXnXnXnXnXnXnXnXnXnXnXnXnXnXnXnXnXnXnXnXnXnXnXnXnXnXnXnXnXnXnXnXnXnXnXnXjXnXnXMXbX",
"jXjXnXjXjXjXcXjXjXbXnXnXnXnXnXbXnXnXnXnXnXnXnXnXnXnXnXnXnXnXnXnXjXMXnXnXnXnXnXnXnXnXnXnXbXbXnXMXnXjX",
"nXnXjXjXjXiXiXgXdXgXdXlXxXxXzXkXkXkXjXzXlXdXzXzXgXgXzXlXdXlXgXgXlXkXlXlXgXgXzXgXdXfXhXhXMXMXjXbXMXMX",
"jXnXjXjXeXV z b v M M v v N N ! ! v v M v v v v v N v v v v v N v v v v v v v v v c B M 0.tXMXMXMXMX",
"jXbXjXlXZ O + + # # ; @ ; ; % $ : ; % ; % ; % ; ; * ; ; ; ; ; ; : ; ; % : % ; @ < @ < # # V hXMXMXnX",
"jXMXMXlXb [ n.N.[ 1 3 L L K K K K G U P J J J J K K J L J J J J L K L J K G ..P % W p.N.;.n fXcXMXMX",
"jXbXMXkXv :./.rXs.@ , >.X.} %.$.} o.i.o.&.o.O.` w.o.|  .$.| u.$.$.%.w.w.}  .B.o.% W V.wXY.V fXMXMXMX",
"jXjXcXdXv f y./.s.$ a C.N.).Y.m.C.Z.m.T.(.M.Z.Q.Y.Y.Z.T.).M.Z.P.).Z.m.m.I.^.'.,.@ s w.~.V.M fXcXnXnX",
"jXiXjXzXv L O.H.n.& q d.P.K.J.P.L.C.V.V.V.m.V.P.V.L.P.L.P.P.L.L.P.P.P.P.K.C.V.^ 5 s O.v.V.M lXjXjXjX",
"jXjXcXzXv Q &.N.0.& : 1 # # # # 1 1 < 1 ; 2 , : 1 = : 1 < = - 7 1 1 : 1 # % & 1 - f <.c.V.M dXMXnXnX",
"jXiXcXiXv Q &.b.y.$ q E ^ ! ^ ^ l 1 x W ^ ! W ! 8 8 ! ! *.*.! l 2 p ^ v v I I i 7 H O.e.L.c dXjXnXjX",
"jXjXcXdXv Q v.~.n.@ ,.0X).`.wX'.3.2 R.).).qXqX).u g ).).qXqXwXR.@ 0.).qXqX0X'...- R e.S.J.M lXjXnXjX",
"jXjXcXdXv L C.wXs.# 4.z.n.`.(.`.2.> N.o.T.`.Q.).w f m.<.`.).0XY.@ 2.c.M.eX(.'.:.- L r.'.U.M gXcXnXjX",
"jXiXjXiXv L r.Y.0.h 6.M [ ).x.T.3., m...C._.y._.a J y.X._.I.!.!.& <.o.p.eX0.(.:.* s %.A.K.M dXjXnXjX",
"jXjXiXiXv I r.n.9.%XVX-Xz Y.b F.5.< ,.*.0.U.=.I.u l -.=.U.z.0.z.2 ^ [ ;.W.1.T.:.: a c.v.K.M dXcXnXjX",
"jXjXjXiXv f o.n.A vXHXvXC E.E.+X#XoXOXOXOXOXOXOXoXOXOXG.OXOXOXOXG.G.G.G.F.g T...< p O.v.K.M dXjXnXjX",
"jXjXgXlXv L C.).7.6XFX9X].VXDXDXDXFXAXSXAXAXAXAXFXFXFXFXDXAXFXAXFXAXFXSX1Xb Y.:.1 s v.`.J.M gXcXnXnX",
"jXjXcXlXv L i.qX8.#XmX$XS l.|.D.}.}.[..X}..X{.[..X{.{.].}.[.{.{.{.{.}.].F.V R.:.- H %.(.J.c dXjXnXsX",
"jXiXcXlXv f o.R.9.D.l.].S %X%X&X%X*X*X%X%X%X*X*X=X=X=X*X&X+X$X$X*X*X%X&X&Xb P.-.- a  .S.J.c dXcXnXnX",
"jXjXcXlXv W u.T.9.E.h.OXk h h h k j j h j j j j k m 7 k t h h k n j u d 7 p A.:.* I %.S.J.c dXcXnXnX",
"jXjXjXiXv W r./.[ V &X4.7 x i x l o i i x p i / < < i p ] 9 g b O 9 0 a f K C.:.= G O.(.J.c dXjXnXnX",
"jXiXjXiXv f i.0X1.    . ( d.{ n.t., (  .B.w.X.!.s i X.#.v._ e.I., P } y.a._ b.( = a O.`.R.c dXcXnXnX",
"jXiXcXiXv L r./.s.O u L $.%.Y v.<.& U ` r. ._ S.a 0 T @.%._ &.I., s { w.w.) b...= s %.S.J.c gXjXnXnX",
"jXjXcXlXv I $.C.p.@ a X.#.@._ v.<.; U | &._ _ C.a 4 +.+.%._ w.I.2 l [ t.&.) b...* s O.m.J.c iXjXnXnX",
"jXjXcXdX^ f S.(.p.@ a } @.+.' y.2.: U }  . .' C.s 8 T ' #.| ;.1.# t h v { ) b...< f v.(.N.v dXcXnXnX",
"jXiXcXiXv f i.^.a.@ e } +.+. .2.3.: E X.` } ( I.H 8 ( ` | ) 9 n -XaX&Xn 9 ) c./ # s r.S.P.c dXjXnXnX",
"jXjXjXiXv ] i.d.s.; a } ' ' ` 3.3.: U } ' ' { B.s 8 ' ' [ u m 6XHXHXGX,Xn d x.[ $ J c.e.P.c dXcXnXnX",
"jXjXiXiXv I $.I.t.$ G ' ' ' ) 3.3.: E } ' } } B.s 3 T ' ) u =X9XZXGXmX6X$Xt x.[ $ J O.v.J.M gXjXnXsX",
"jXjXcXlXv f o.V.p.% a } ' ' { t.,.: U } ' ' { d.p 9 T  .f z 7X9XmX9X5X@X8Xt 1.=.* G  .v.F.b jXjXnXnX",
"jXjXcXlXv I w.m.p.% q } ' ' ' w.>.: E } } ' } d.a 8 T ' ) h 7X#X9X@XF [.tXh 1.=.= G %.e.Z.z iXjXnXnX",
"iXjXcXlXv I i.~.a.% q } ' +.' $.$.: U } ' ' } d.p 8 T ` ] t F.8XF S F 7Xk.u 3.=.- L r.S.F.b pXnXnXnX",
"iXjXcXlXv G B.'.a.% a ' _ _ ' $.X., U } ' ' { y.a 3 ' ' o.g 5 D $X$X#XD 5 g t.=.- H %._.Z.b pXnXnXnX",
"jXjXiXiXv f %.^.p.; g ..| ` ' $.X., P } ' ' ' t.a 8 ( ' _ ] + X 6 y 6 X + ) 2./ - s o.T.P.v gXjXnXnX",
"jXjXjXiXv I C.wXM.# p :.| ` ` &.X.: U } ' ' } y.p 4 T T '  .0   X X X X w _ O.E - H B.'.U.c lXjXnXnX",
"jXjXjXzXN f y.^.0.5 l l ] | | $..., P X.' ' { t.i 3 +.+.+._ Y 9 .     9 ) _ &.E 7 s q.Y.J.M dXjXnXnX",
"jXjXcXzXv I $.H.9.E.kXK.p ] Q { / ; L ( Q ( Q >.i 7 ( ( U ] ..:.# # p f ] ) @.U = H o.y.H.v dXcXnXnX",
"jXnXMXkXv Q y.0.6.aXHXvXn 5.;.5.5.B 4.5.5.6.5.6.V V 5.5.5.6.6.6.V C 6.6.B R o.E : K %.v.P.M dXnXjXnX",
"nXjXcXlXx W w.n.5.tXHX8XF bXNXCXBXBXBXBXBXBXBXBXVXVXBXBXBXCXBXBXVXVXVXVX1Xv X.E = H &.y.U.M dXcXjXjX",
"jXjXbXiXb ) B.^.9.%XmX$XS $X$X5X5X6X4X6X6X4X6X6X6X4X6X4X4X4X4X5X6X6X5X3XE.^ ,.! = E v.^.K.M dXnXnXnX",
"jXnXcXuXv J B.).9.k.$X}.C D. X@X@X.X|.XX X|.XXXX|.|.}.|. X}.XX X@XXX.XoXE.=.:.R - a v.0XU.M dXMXnXhX",
"jXjXcXdXx I u.M.9.D.S ].B 9.f.f.h.j.j.f.f.f.f.8.j.j.f.f.f.f.f.j.j.j.j.j.;.g o.a - H %.c.Z.M dXnXnXnX",
"jXMXcXdXv / y.s.V g.-Xk.* % $ : o . # # @ @ @ # . . # # # @ @ @   o @ # # r | e ; J c.c.N.M dXMXnXnX",
"nXhXdXuXx L w./.1.X 5 o G +.T T P : P { ` ` ( ..0 4 ( Y { Y X.U & G ( ~ .._ _ G ; J %.A.I.M uXfXnXnX",
"aX2X>X&Xz f d.'.p.o 7 N } ' } } E , E X.{ } { } 0 4 X.} } X.X.Y & G $.X.{ | ' G - s <._.U.z &X:X2XhX",
"2X+X:XE.j 2 0 G a < u s q w w p u : i e e e e e : : p e e e e e : 0 q a a G w 4 - 8 0 g l j &X&X;XyX",
"2X+X:X;Xf.A 7.7.5.f.6.8.7.7.Z Z A A 8.7.8.Z Z 7.8.8.8.8.8.8.8.8.7.9.8.8.8.8.7.7.8.7.Z Z D j.G.&X&XyX",
"pX<X:X:X:X:X:X:X,X:X:X:X:X:X:X:X:X:X:X:X:X:X:X:X:X:X:X,X,X,X,X,X,X,X,X,X,X,X,X,X,X,X:X:X:X:X:X:X2XjX",
"jXsXyXpXpXpXpXpXpXpXpXsXsXpXpXsXpXsXsXsXsXsXpXsXsXsXsXsXsXsXsXsXsXsXsXsXsXsXsXpXpXpXsXpXsXsXsXsXnXnX",
"jXjXjXjXjXjXjXjXjXjXnXcXnXjXjXnXcXnXjXjXbXjXjXcXjXnXjXMXnXcXMXnXnXMXcXnXMXjXMXjXMXjXjXnXjXnXMXjXMXnX",
"jXiXjXjXjXjXjXjXjXjXjXjXjXjXjXjXjXjXjXjXjXjXjXjXjXjXjXjXjXjXjXjXjXjXjXjXjXjXjXjXjXjXjXjXjXcXnXnXnXjX"
};
