/* XPM */
static char *result[] = {
/* columns rows colors chars-per-pixel */
"50 50 43 1 ",
"  c #262626",
". c #282727",
"X c #282827",
"o c #2D2C2A",
"O c #302F2D",
"+ c #32312E",
"@ c #353430",
"# c #383733",
"$ c #3D3B36",
"% c #3F3E38",
"& c #413E38",
"* c #45423B",
"= c #49463E",
"- c #494740",
"; c #4D4B43",
": c #514E45",
"> c #545147",
", c #565348",
"< c #5A564A",
"1 c #5D594C",
"2 c #615C4F",
"3 c #645E51",
"4 c #676152",
"5 c #6C6655",
"6 c #6F6857",
"7 c #6F6A59",
"8 c #706957",
"9 c #726B59",
"0 c #74705F",
"q c #78715E",
"w c #757261",
"e c #797663",
"r c #7E7A66",
"t c #7F7C68",
"y c #807C67",
"u c #827E69",
"i c #84826D",
"p c #878670",
"a c #888670",
"s c #8C8A73",
"d c #918F77",
"f c #939279",
"g c #98967C",
/* pixels */
"ssddsdssf: X2gssssdddsg<oai8sfsddsfao=qsddddddsg<X",
"si9tututi2*o:eriiyr0w9r-Osr27eiwwue7=19yyy00000e-o",
"d9-58878608o$;58894=;;;$+sw-;,9>:9<;q08888>=;;;;$o",
"dw-79998996;18999998<;>$o#*;48967978899999868<;,$o",
"de<89999998:2q9999994,>$o&;1899999999999999994,>$o",
"su899999998;2098988996>$+9909999999999999999996>$o",
"e989999999852,79996<1,>$+u9>8999899989899989996>$o",
"q0999999988q3>79963;::>$+se:6999999999999999964>$o",
"du889999999999999,;>::>$+au899999998999999999<;>$o",
"su899899989999999,:;12>$+au8999999999999999891;>$o",
"st8899999999999991>>58>$+ay5889999999989999991;,$o",
"f0;8999998999899988896>$+sw;9q89899999999898q1;>$o",
"sr28989999998999999941>$+s0::<999899989999973,;>$o",
"su9999999999999999991=>$+a0=O&q8999999999994;::>$o",
"98899998999999999999<;>$o++O2998999899999995;:::$o",
"r09999999899999899993<>&O***699999999999999511<,$o",
"du99999999999999999998,$O8q999999999999999999q6>$o",
"su69992,<499961><6992,>$@uy8999999999999999982,>$o",
"dy6965,::39896>:;469<;,$@at4999999979545699991;:$o",
"du993;:>:3q998>:>;<q<;,$osw-6999999902;;199991:,$o",
"dw,94::::39139,:;>,1>;$+@aw;699999411,>;19961,;$+o",
"s0-53;::;35;15>:>;;-:-oo@p0-466655<-;;;;1853;;=ooO",
"ge;,>>>>>>>>>>>>>>>>,;oo@de>>>>>>>>>,,>>>>>:,$oo+o",
"<;#$$$$$$#$$$$$$$$$$$$oo@,-#$$$$$$$$$$$$$$$$$+oooO",
"oO@++O++@@@@O@oO@+@++@@+oOO@O@OO++++++++++++++@@+o",
"pasau5uaaapaap:3spasaad,opsasu4psasiissasisssasd,o",
"du0ur9yuuuywww26uuyww0w;oap7w737eyuuir0yuuww0w0e-o",
"d0-36969665;;;69693-;-;$+a0-;;>->88691-686>=;;;;$o",
"dw-89999999666699996<:,$@a0;57666999986999667<;>$o",
"dw,899999989999999991;>$+ae,799999999999999994<>$o",
"su999999999999999999<;>$+au99999999999999999896>$o",
"du89999999999999999963>$@au69999989999998999995>$o",
"py88899999899999969996>$+ur46999999999999999995>%o",
"8999999999999999999995>$o63:8999699999969969995>$o",
"uy89999989999989999996>$+u7;8996999999999999998>$o",
"dy59999999999999999696>$+sw;6999999999999999993>$o",
"d9-5999999989999999994>$+au69999699699969999q1;>$o",
"de29999999999899999995>$+re699999999999999963,;>$o",
"au99999999999999999996>$+59999999999999999q3;::>$o",
"<39999998999998999991:>$+pu699999999999999q3;;:>$o",
"&,9999999999989999993<>$+yr8999999999999999512,:%o",
" -q9999999999999999696>$O58999999999899999999q5,$o",
"ew9999999999989999993>>$@ut899995<3q99999999995,$o",
"fy399999998999999965<;>$@au499993&2989899999953>$o",
"dw-9999999999999995;::>$@s0-79993.2q99999999q<;>$o",
"d9;<1<89931999q3<1<::>,$+at31<185.=2<3q999982:;>$o",
"s0;;;;359<;55582;;::;-;#+pt5>;;42O&;-2858553;::;$o",
"ge;,>>,>>,>>,>>>>>>>$o+o@de;,>>,>>&O>>>>>>>>>>;OOO",
"<;$$$$&$$&$$$$$%$$$%@oOo+,;$$$$$&&@O$&$$$$$$%$$ooO",
"..oooooo.ooooooooooooOoOO.oooo.oo.oO.ooooooooooOoO"
};
