/* XPM */
static char *result[] = {
/* columns rows colors chars-per-pixel */
"50 50 217 2 ",
"   c #000D34",
".  c #00143B",
"X  c #03193D",
"o  c #0B1C3C",
"O  c #141D3E",
"+  c #182139",
"@  c #252528",
"#  c #2D2C2A",
"$  c #302F2D",
"%  c #32312E",
"&  c #292B35",
"*  c #2F3139",
"=  c #343332",
"-  c #3D3B37",
";  c #3A3A39",
":  c #403F3B",
">  c #48453E",
",  c #061B41",
"<  c #081A45",
"1  c #121E49",
"2  c #0F1850",
"3  c #17195A",
"4  c #142144",
"5  c #1C2543",
"6  c #13274B",
"7  c #15264A",
"8  c #1B2453",
"9  c #242A44",
"0  c #272D45",
"q  c #2E3143",
"w  c #373845",
"e  c #272956",
"r  c #2E2D5E",
"t  c #263959",
"y  c #343456",
"u  c #1B1564",
"i  c #291777",
"p  c #2F2D60",
"a  c #36246A",
"s  c #362576",
"d  c #423D5C",
"f  c #453B67",
"g  c #45287C",
"h  c #463778",
"j  c #364765",
"k  c #454343",
"l  c #494643",
"z  c #4D4B43",
"x  c #43424B",
"c  c #4D4B4B",
"v  c #514E45",
"b  c #514E4A",
"n  c #545147",
"m  c #565349",
"M  c #5A564B",
"N  c #5D594D",
"B  c #4A4758",
"V  c #514F57",
"C  c #5B5754",
"Z  c #615C4F",
"A  c #635E51",
"S  c #666153",
"D  c #6C6555",
"F  c #6F6857",
"G  c #696659",
"H  c #6E6A5A",
"J  c #706957",
"K  c #726B59",
"L  c #74705F",
"P  c #79725F",
"I  c #4C526F",
"U  c #4A5A75",
"Y  c #53637B",
"T  c #767361",
"R  c #797663",
"E  c #7D7966",
"W  c #807C67",
"Q  c #827D69",
"!  c #85826D",
"~  c #898770",
"^  c #8D8B74",
"/  c #908F77",
"(  c #939279",
")  c #98967C",
"_  c #2E1481",
"`  c #34148B",
"'  c #340B92",
"]  c #381293",
"[  c #3A1493",
"{  c #3B2881",
"}  c #431B9E",
"|  c #5B3189",
" . c #692D98",
".. c #6F349A",
"X. c #4514A5",
"o. c #520FB8",
"O. c #4C10B1",
"+. c #5317B7",
"@. c #593CA3",
"#. c #7A34A6",
"$. c #5A4281",
"%. c #5F519B",
"&. c #664889",
"*. c #6F4B91",
"=. c #764C97",
"-. c #785097",
";. c #5A6881",
":. c #68758C",
">. c #717B95",
",. c #644BA6",
"<. c #590EC6",
"1. c #5C09CF",
"2. c #6409DA",
"3. c #722FD0",
"4. c #6C0DE4",
"5. c #720CED",
"6. c #750BF3",
"7. c #7607F8",
"8. c #7B0AFC",
"9. c #7C14F8",
"0. c #7F2AE8",
"q. c #8B35B5",
"w. c #82549E",
"e. c #8A4EAA",
"r. c #945DAC",
"t. c #A15FB8",
"y. c #9F63B3",
"u. c #A663BB",
"i. c #913ACA",
"p. c #AB3AD2",
"a. c #B138D9",
"s. c #810EF9",
"d. c #8315F8",
"f. c #981BF9",
"g. c #9724E7",
"h. c #8A23FA",
"j. c #9822F6",
"k. c #9136FA",
"l. c #973AFC",
"z. c #B02EF3",
"x. c #C236FC",
"c. c #D53BFC",
"v. c #B649DD",
"b. c #8962CB",
"n. c #B46BC5",
"m. c #B96DC9",
"M. c #B24DF8",
"N. c #AD6AFB",
"B. c #B675FF",
"V. c #CA71D8",
"C. c #D47BDD",
"Z. c #DA49FA",
"A. c #C950F3",
"S. c #DB56FA",
"D. c #E04EFA",
"F. c #E35BFB",
"G. c #E95AFF",
"H. c #D76BE8",
"J. c #DC7DE3",
"K. c #CF6AF7",
"L. c #E379EC",
"P. c #E76CF9",
"I. c #EA6BF8",
"U. c #F26EFF",
"Y. c #EA78F7",
"T. c #F378FC",
"R. c #788598",
"E. c #8691A3",
"W. c #949AAE",
"Q. c #90A1AB",
"!. c #9BA5B4",
"~. c #A6AEBC",
"^. c #AEB6C2",
"/. c #B1B9C5",
"(. c #B987F8",
"). c #C79DFB",
"_. c #D691F9",
"`. c #E683EC",
"'. c #EE86F1",
"]. c #E988F9",
"[. c #F386F6",
"{. c #F489F6",
"}. c #F885FB",
"|. c #F68AF8",
" X c #FB8CFB",
".X c #E994F8",
"XX c #F592F7",
"oX c #F59AF7",
"OX c #FF90FF",
"+X c #DAB3FB",
"@X c #F6A6F8",
"#X c #EEB3FE",
"$X c #F7B3FA",
"%X c #F7BAFC",
"&X c #BAC1CB",
"*X c #C5CBD4",
"=X c #CAD4D7",
"-X c #D6DBE1",
";X c #D9DDE3",
":X c #DCC2FD",
">X c #E4C1EB",
",X c #E5C6FE",
"<X c #FDC2FE",
"1X c #F6C9FD",
"2X c #E7D5FE",
"3X c #FAD4FC",
"4X c #F6DBF9",
"5X c #DEE2E7",
"6X c #E3E7EB",
"7X c #EEE3FE",
"8X c #FBE4FD",
"9X c #F4ECFA",
"0X c #EDF1F3",
"qX c #F2F6F6",
"wX c #F6F3FD",
"eX c #FBF4FE",
"rX c #FDFEFE",
/* pixels */
"^ ^ / ^ ^ ^ ^ ^ ( v @ @ Z ) ^ ^ ^ ^ ^ / / / ) M # ~ ! J ^ / ^ / / ^ ( ~ @ z P ^ / ^ ^ / ( / / ) M @ ",
"^ Q L E ! E Q Q ! Z > # n P E Q L H G N A H R l # ^ E Z D S H S S T T H > N K W W ! P L L L H R > # ",
"/ K l D K F J J F L J $ - z D D x 0 0 4 5 ; z ; = ~ T z w 9 0 5 4 x n z P L K D J K n > > n > > - # ",
"/ T l F K K K K K J F l N F Z V &.*.*.*.*.f k ; # ; ; w a ` ] ] [ { B N F K K K K K F D J N n n - # ",
"^ P m F K K K K K K J v A J l y u.{.`.[.`.&.9 * # - : 9 [ 4.5.5.6.<.u z F K J K K K K K K A M n - # ",
"/ ! K K K K K K K K J v A J k r m.OXOXOX'.&.+ = % F S 0 [ 9.s.8.8.<.3 c F K K K K K J K K K F n - # ",
"P L J K K K K K K K J F N n > r n. X{. X'.-.y q $ E M 4 ] 5.8.8.8.<.u l F J K K K K K K K K F n - # ",
"L L K K K K K K J K K K A v d r n.OX{.{.{.C.y.f + b w o ` 6.8.9.8.<.3 l F K K K K K K K K J S n - # ",
"/ Q J K K K K K J K K K K J k r n. X|.{.}.}.J.#.a a a s +.5.8.7.8.1.` B C H K K K K K K K M v n - # ",
"^ W J K K K K K K K K K K D l r n. X{.{.[.I.Z.a.p.a.a.a.g.s.7.7.6.6.2.} y C J K K K K K K M v n - # ",
"^ Q J J K K J K K K K J D C f ..V. X|.{.[.I.F.G.G.G.D.Z.x.j.j.f.8.7.8.O.2 b J K K K K J K Z v n - # ",
"/ L > J K K K K K K K J b 0 q.Z.Y.|.{.{.{.[.[.[.[.[.I.Z.c.c.c.x.f.8.8.O.7 b J J J K K J P M > n - # ",
"/ E Z J J K K K K K K K v 8 e.U.}.{.{.{.[.{.{.{.{.{.Y.P.D.Z.c.c.z.f.s.O.1 n K K K K K J Z m v n - # ",
"^ Q K K K K K K K K K J v 8 r.}.|.{.{.{.{.{.{.XXXXXXXXXXI.D.Z.D.S.z.f.o.u c F K K K K D v n v n - # ",
"K K J K K J K K K K J J n 8 r.|.|.{.{.{.{.[.{.%X3X3X3X3X1X#X%X%X%X_.d.4.+.h c A K K K D > v v n - # ",
"E L K K K K K K K K J D B f t.}.|.{.{.[.[.XX@X8XrXrXrXrXrXrXrXrXrX:XN.h.8.] 9 N K J K D M Z m n - # ",
"/ ! J K K K K K K K Z x | p.H.{.|.{.{.[.[.$X8XrXrXrXrXrXrXrXrXrXrXwX2X).d.' 5 N K K K K K P J n - # ",
"^ Q J K K K Z m m S M 9 ..G.T.{.{.{.{.XX$X8XrX=X/./.^./.-XrXrXrXrXqX=Xb.<.' s V S F K K K Z n n - # ",
"/ Q J K J D n v z S N 0 *.Y.}.{.{.[.{.$X8XrX6X>.t t t t E.qXrXrXrX*XY 6 8 X.<.` w S K K K N z v - # ",
"^ Q J K S z v n v S N 0 -.'. X{.{.{.|.%XqX=XE.t 4 U >.:.R.!.;X0X&X:.6 t :.,.X.u 0 S J K K M v n - # ",
"/ R n K D z v v z S N 9 -.'. X{.{.[.{.<X9XE.6 . j ^.0X5XR.j !.5X;.< X ;.*XR.2 . 0 D K F N n z - % # ",
"^ K > D Z z v v z Z n 5 -.'. X{.{.}.|.<X0X>..   8 :.E.R.j 7 !.-XU   . j >.U o . 0 N F Z z z > # $ $ ",
") R v n n n n v n v k 5 -.'. X{.{.{.{.%X0XR.o . , , o , . 6 !.-XY . . X , , X X & c n n m - # $ % # ",
"N > ; - - - - - - - * 1 -.'. X[.{.[.{.<X0X>..   X X . .   1 !.-XU   . X . X X X 4 * - - - % # # # $ ",
"# $ % % % $ % % % % # 4 =.Y.}.{.|.[.|.$X4XW.j 6 . X , . 6 I /.5XR.t , . . 2 3 2 O & % % % = = = % # ",
"! ~ ~ ^ Q D ! ~ ~ ~ H 0 ..S.T.[.{.{.{.XX@X>X/.j . .   X ;.*X0XqX5XW.t   < ` <.i w R ^ ^ ~ ~ ~ ( M @ ",
"/ ! L E E J E ! W Q K z | i.H.[.|.{.{.[.[.3XqXQ.Y Y Y Y ~.rXrXrXrX;XR.Y ;.@.+.h Z R P L P L P W > # ",
"/ L > D J K F F J J D d w p t.[.|.{.{.[.{.1XwX0X;X6X5X6X0XrXrXrXrXqX6X6X-X>.3 V G H m > v > > > - # ",
"/ L z J K K K K K K K J z 1 e.U.}.{.[.[.{.$X1X$X1XeXrXrXrXrXrXrXrXrXrX7X).%.+ M K K F F J M > M - # ",
"/ P m J K K K K K K K K n 9 q.S.Y.|.{.{.{.{.[.F.P.3XeXwXwXwX9X9X9XqXwX).0.[ w N K K K K K S M n - # ",
"^ ! J K K K K K K K K J A C h #.V.|.{.{.{.{.[.P.P.].].].]._.K.N.N.B.B.i.[ j M G K K K K K K F n - # ",
"^ Q J K K K K K K K K K K J k r m. X|.{.{.{.{.{.T.S.S.S.S.S.M.h.9.6.2.X.y C F K K K K K K K D n - # ",
"~ E J K K K K K K K K K K J l e n. X{.{.{.{.{.{.[.Y.].%X1X,X+X).k.2._ y N F K K K J K K K K D n - # ",
"J J K K J K K K K K K K F N B &.V.|.{.{.{.{.{.{.{.[.$XwXrXrXrX9XB.3._ f A D K K K K K J K K F n - # ",
"! R J K K K K K J K K J M y -.J.'.{.{.{.{.{.{.{.[.[.$XeXrXrXrXwX9X).0.} y N J K K K K K K K D n - # ",
"/ Q F K K K K K K K D N B &.m. X X{.{.|.{.{.{.{.XX@X3XeXrXrXrXrXrX,Xl.<.` f N F K K K K K F D n - # ",
"/ K > F K K K K K H N y -.J.{.{.{.{.{.|.[.[.{.[.oX4XrXrXrXrXrXrXrX:Xk.7.2.] y N J K K K L N z n - # ",
"/ R N J K K K K D C B =.m. X X{.{.|.|.H.M.K.{.[.@X8XrXrXrXrXrXrXrX:Xk.7.8.1.[ f M D K D Z m v n - # ",
"^ Q K K K K K K S w $.J. X[.{.{.{.{.T.M.j.A.[.{.@X8XrXrXrXrXrXrXrX:Xk.7.6.8.4.i w A K D z v v n - # ",
"m S K K K K K K Z 0 $.`. X{.{.|. XP.M.l.z.S.[.{.@X8XrXrXqXrXrXrXrX:Xk.7.7.8.5._ q A K D z v z n - # ",
"> n P K K K K K S q $.L.OX|.|.'.C.v.j.j.Z.I.[.[.@X3XeXrXrXrXrXrXrX:Xk.7.8.8.5._ q S K F N Z N n - # ",
"@ > P J K K K K Z q $.L.OX|.|.`.&.| z.c.c.I.{.{.{.oX1XeXrXrXrXrXrX:Xk.7.8.s.5._ q Z K K K K D n - # ",
"P P K K K K K K D c I t.n.u.u.r.f f q.v.D.T.[.{.{.[..X+X2XrXrXwX2X(.3.o.o.<.+.s c S K J K K J n - # ",
"( E A K K K K K J F V y e e e d A Z p =.L.|.{.{.{.|.K.l.(.qXrX7XN.3.i 2 3 3 e V F J K K K J Z n - # ",
"/ L > F K K K K K K D c c c l n F S & $.`.OX{.{.{.|.A.d.M.@X%X_.3.' w z z c z S K K K K K N > m - # ",
"/ L > M N N D K K Z N J H F K S N v 9 &.`.{.{.{.{.|.K.h.f.A.Z.v.g o > N m Z K K K K K J N n v m - # ",
"/ L > n z z A F F N z D F D F Z l l : f *.n.[.|.{.{.L.A.i. .| | d # - l z N J D F D F Z z v v > - # ",
") E > M n n n n n n n n n n n n n n n k 7 w.[.|.{.{. X'.e.1 < q l n - % n n n n n n n n n n v % # $ ",
"M > - - - - - - - - - - - - - - - - ; % , -.{.OX{.{. X{.w.O & * ; : % $ - - - : - - - - - - - $ # % ",
"# # # # # # # # # # # # # # # # # # # @ 7 w.'. X{.{. X[.-.4 @ $ # # # # # # # # # # # # # # # # $ # "
};
