/* XPM */
static char *result[] = {
/* columns rows colors chars-per-pixel */
"50 50 198 2 ",
"   c #161532",
".  c #191633",
"X  c #1C1A36",
"o  c #1E1D39",
"O  c #2B172F",
"+  c #3E1C2F",
"@  c #231B36",
"#  c #2D1C34",
"$  c #201E39",
"%  c #261B35",
"&  c #341D34",
"*  c #3E1D31",
"=  c #301F38",
"-  c #1D2338",
";  c #25233D",
":  c #2A223B",
">  c #222A3C",
",  c #3A2336",
"<  c #35243B",
"1  c #352E38",
"2  c #3D2A3B",
"3  c #382A36",
"4  c #2E373C",
"5  c #26373D",
"6  c #3A333D",
"7  c #33363D",
"8  c #411A2D",
"9  c #431D31",
"0  c #442135",
"q  c #492537",
"w  c #44263A",
"e  c #4A273A",
"r  c #452A3C",
"t  c #4B2A3C",
"y  c #4C313F",
"u  c #44303F",
"i  c #29423F",
"p  c #2D2C42",
"a  c #332B41",
"s  c #273A42",
"d  c #333146",
"f  c #3C3645",
"g  c #343C41",
"h  c #3C3945",
"j  c #3D3B4C",
"k  c #393649",
"l  c #512F43",
"z  c #4C3344",
"x  c #423C4D",
"c  c #4D3C47",
"v  c #533A45",
"b  c #543747",
"n  c #5C3E50",
"m  c #264442",
"M  c #2B4444",
"N  c #2C4847",
"B  c #2D4048",
"V  c #324345",
"C  c #3E4347",
"Z  c #344649",
"A  c #334A4B",
"S  c #3C4B4A",
"D  c #374748",
"F  c #3D4E51",
"G  c #3C5052",
"H  c #47414B",
"J  c #434D4D",
"K  c #4B4B4E",
"L  c #56444C",
"P  c #59454D",
"I  c #534C4F",
"U  c #5A4A4F",
"Y  c #48514F",
"T  c #444352",
"R  c #4A4452",
"E  c #4D4A56",
"W  c #4F4E59",
"Q  c #5C4453",
"!  c #564F52",
"~  c #5B4E51",
"^  c #544B59",
"/  c #564B59",
"(  c #4D5351",
")  c #4A5558",
"_  c #4B5A5A",
"`  c #495756",
"'  c #545353",
"]  c #5C5454",
"[  c #5A5856",
"{  c #54545D",
"}  c #5C545B",
"|  c #555D5D",
" . c #5E595B",
".. c #565855",
"X. c #654B5C",
"o. c #615455",
"O. c #615857",
"+. c #62545C",
"@. c #655C5B",
"#. c #685F5C",
"$. c #67615E",
"%. c #69615E",
"&. c #5E4F60",
"*. c #4D5C60",
"=. c #575660",
"-. c #5A5761",
";. c #5B5B61",
":. c #694F60",
">. c #625C64",
",. c #6B5C6B",
"<. c #685864",
"1. c #725D6D",
"2. c #675D71",
"3. c #6A5E72",
"4. c #765E70",
"5. c #596363",
"6. c #5F6A73",
"7. c #656262",
"8. c #6A6463",
"9. c #6E6A67",
"0. c #65656B",
"q. c #6B656B",
"w. c #6D6A6B",
"e. c #656868",
"r. c #716E6D",
"t. c #73716F",
"y. c #676974",
"u. c #6C6D75",
"i. c #686775",
"p. c #736372",
"a. c #786173",
"s. c #736C75",
"d. c #7D6C7C",
"f. c #796F74",
"g. c #6D7179",
"h. c #757575",
"j. c #797677",
"k. c #767877",
"l. c #777678",
"z. c #7B747B",
"x. c #777878",
"c. c #7B7A7B",
"v. c #797875",
"b. c #807E7F",
"n. c #7E807F",
"m. c #83837F",
"M. c #6F7581",
"N. c #777682",
"B. c #7C7583",
"V. c #7E7E80",
"C. c #777A8A",
"Z. c #847482",
"A. c #837E84",
"S. c #837788",
"D. c #867B8A",
"F. c #8B7A8A",
"G. c #897788",
"H. c #798287",
"J. c #6D8B92",
"K. c #7F8B95",
"L. c #858384",
"P. c #888686",
"I. c #84838B",
"U. c #8B838B",
"Y. c #83898C",
"T. c #8F888F",
"R. c #8F8790",
"E. c #818D92",
"W. c #8B8B92",
"Q. c #808A99",
"!. c #938594",
"~. c #9A8797",
"^. c #938993",
"/. c #978B99",
"(. c #9B8C9B",
"). c #839096",
"_. c #8A959B",
"`. c #8B999D",
"'. c #87989F",
"]. c #9C909E",
"[. c #97929E",
"{. c #899BA2",
"}. c #879AA0",
"|. c #9495A4",
" X c #9C93A2",
".X c #979CAB",
"XX c #A092A3",
"oX c #8FA2A9",
"OX c #8AA2AA",
"+X c #8AA8B3",
"@X c #91A5B1",
"#X c #95A9B7",
"$X c #96B2BE",
"%X c #95B5C2",
"&X c #9BB7C3",
"*X c #99BBC9",
"=X c #9ABAC5",
"-X c #9DC1CE",
/* pixels */
"/.(.!.c.W . 7.Y.*X|.~././.(./.(.~.(.(.(.A.e.. W c.$X@X~././.(.~././.(.(./.~./.b.;.. -.b.%X.X~./.(.(.",
"A.A.A.R.<.# K.{.E.L.A.A.A.A.A.A.A.A.A.S.F.b.O i.oXE.I.A.A.A.A.A.A.A.A.A.A.A.A.T.s.O N.{.K.L.A.L.A.S.",
"h.h.h.].1.0 @XoXr.h.h.h.h.h.h.h.h.h.h.t.T.F.8 N.&Xh.h.h.h.h.h.h.h.h.h.h.h.h.h.!.Z.8 K.%Xs.h.h.h.h.h.",
"h.h.h.c.+.9 F.R.h.h.h.h.h.l.h.h.h.h.h.h.x.s.8 p.].x.h.h.h.l.h.l.h.h.h.x.l.l.h.x.,.8 d./.h.h.h.x.h.h.",
"h.h.h.r.! 7 F.^.h.h.h.h.h.h.h.h.h.h.h.h.r.7.1 p.(.k.h.h.h.h.h.h.k.h.h.h.h.h.h.r.@.1 z./.h.h.h.h.k.h.",
"h.h.h.@.E N U.T.h.h.h.h.h.x.h.k.k.h.h.h.8.[ m u.(.j.h.h.h.h.h.h.j.h.h.l.h.h.h.$.' m B./.h.h.h.x.h.h.",
"h.h.h.@.Y M F.!.h.h.h.l.h.x.h.h.h.h.t.@.@. .m u.(.l.j.k.h.h.h.h.l.h.x.h.j.k.h.8.~ * d./.h.h.x.h.h.h.",
"h.h.h.@.E g R.R.h.x.h.h.h.h.h.k.h.h.w.7.@.] 4 u.(.h.j.h.l.h.h.l.h.h.h.h.h.h.k.%.! 3 d./.h.h.h.h.k.h.",
"h.x.h.$.P 9 F.R.t.j.h.h.h.h.j.j.x.@.8.c.8.] 9 a.].h.h.h.h.h.h.h.x.h.h.h.j.k.j.8...m N.(.h.h.h.k.h.h.",
"8.8.@.v a % z.T.^.b.h.8.8.8.8.8.8.@.@.8.P t % -.P.^.I.h.h.l.c.r.8.c.t.8.8.8.8.v z - 0.P.^.L.x.x.x.x.",
"[ ] ~ w & o | s.F.h.e.~ ! ! ' ' [ [ [ ] y , X T u.G.b.q.r.q.q.[ ! 0.@.o.] [ [ r < X ^ w.G.d.q.q.e.w.",
"m 3 * .       % 8 4 5 . X $   > 5 m 4 8 @   . . . 8 8 9 8 & . X @   # 8 8 3 m o       . + * 9 % X . ",
"J.g.4.3.2.2.2.4.a.s.y.} d $ E y.J.g.s.4.1.2.3.3.q.+.<.a.a.,.{ p ; ^ y.C.a.a.g.i.2.,.i.2.a.,.} $ d =.",
"&X.X(.].].(.].].].(.^.L.T ; x.`.=X X/.].].].(.(.(.x.U. X(.^.L.k p c.{.=X].(.(.(.(.(.(.(.(.P.h.; T L.",
"l.h.h.l.h.h.h.h.x.h.l. XX.w #X}.h.x.l.h.h.h.c.8.] @.8.x.h.A.].n z %XE.h.h.x.k.h.h.l.h.h.h.U.~.e L c.",
"h.h.h.h.h.h.h.h.h.h.l.R.Q t @XW.h.h.h.h.h.h.q.r.f.e.w.h.h.x.R.b l #XY.h.h.h.h.h.h.h.h.h.h.b.D.e L c.",
"h.h.h.h.h.h.h.h.h.k.h.x.L e ^.D.h.h.h.h.h.h.~ b.(.z.x.h.h.h.x.b l ~.A.h.h.h.h.j.k.h.h.x.h.h.h.w P c.",
"h.x.h.k.j.h.l.h.k.j.t.%.K Z ~.U.t.h.h.x.8.8.^.A.z.h.v.h.x.r.%.J G (.D.h.h.h.h.l.h.h.h.h.x.r.@.V _ c.",
"l.h.h.j.k.h.h.x.h.j.u.@.J A !.U.h.l.h.l.8.e.^.A.h.h.h.h.k.t.O.H H (.A.h.k.h.k.h.k.j.h.l.x.8.O.N _ c.",
"j.h.h.l.h.h.h.h.h.k.t.@.J A !.U.h.l.h.h.h.h.h.h.h.h.h.h.k.w.@.y l /.A.h.x.h.h.h.h.h.h.h.x.8.O.D _ c.",
"h.h.h.h.h.h.k.x.j.k.h.@.J A /.U.h.h.k.h.h.h.x.h.k.h.h.h.x.t.$.y l (.A.h.8.9.x.h.x.h.h.h.x.r.O.N _ c.",
"c.x.h.h.h.k.h.w.h.t.w.o.S Z R.D.h.h.h.k.h.h.r.h.h.t.t.h.h.8.] u z ^.A.l.@.7.h.t.r.h.t.t.h.#.~ s ) l.",
"XXP.h.@.w.n.%.@.%.$.] q = ; h.T.XXL.x.x.c.k.$.@.@.@.@.@.%.~ q # p x.^.].n.r.@.%.#.#.#.#.$.L q X T m.",
":.{ ` v c H h f f c z & @ o j / X.Q U Q R H h f f v v v J C # @ ; x / :._ ` Y h f h f f v 2 # X p T ",
"q f Z t < o X o - w z p ; p o : e e e e = o . o ; r e e D B p ; $ $ & w V A A ; $ X o ; t < ; ; ; $ ",
"~.!.!.~.A.w.; d s.{.+XF.F.F.!.!.!.!.!.!.B.5.X E h.+X.X!.!.!.F.R.!.!.~.~.^.!.^.c.-.  { c.$X|.!.!.!.~.",
"I.D.U.P.U.D.a R _.`._.U.R.R.D.U.D.U.I.U.P.z.O 0.`.`._.D.U.U.R.R.U.U.U.U.U.I.D.U.p.O u.'.}.W.U.U.U.A.",
"h.h.h.t.D.(.t &.-XH.w.h.l.h.h.t.h.h.h.h.!.F.8 C.*Xj.r.h.h.h.u.h.h.h.h.h.h.h.h.!.Z.+ K.%Xh.t.h.h.h.h.",
"h.l.x.h.v.c.t Q XXA.h.x.h.l.x.j.h.h.l.h.b.s.8 4. Xx.h.l.h.h.h.x.h.l.j.x.l.l.x.c.q.* B.(.h.x.l.l.l.h.",
"h.h.h.h.h.r.e Q (.c.h.h.h.h.h.j.h.h.h.h.t.e.3 p.(.h.h.h.h.h.h.h.l.h.h.h.h.h.h.h.@.* d.~.h.j.h.h.h.h.",
"c.h.h.x.w.O.q Q ].A.h.l.h.j.h.j.h.h.h.l.%.[ m g.(.x.h.h.h.h.h.h.h.h.h.h.h.h.h.#.~ 9 d./.h.h.h.l.h.h.",
"h.h.h.h.w.@.g { ].c.h.h.h.k.l.h.h.l.h.h.8.] 3 a.(.l.h.h.l.h.l.h.l.h.h.l.h.h.h.8.' 4 d./.h.h.h.h.h.h.",
"h.h.h.c.r.O.V *.XXb.h.h.h.h.h.h.h.h.h.x.8.] , 4.(.x.h.h.h.j.k.h.h.l.h.h.h.h.h.8.' m l./.x.h.h.h.h.h.",
"h.h.h.x.9.O.N _ ].c.h.h.h.h.h.h.h.h.h.k.8.[ m g.(.h.h.h.h.h.h.h.k.h.j.h.h.h.h.#.' M B.!.h.x.l.h.h.h.",
"h.h.h.c.r.O.f / ].b.f.h.h.h.x.h.h.h.k.k.8.[ M t.(.x.h.h.h.h.h.h.h.h.k.h.h.h.h.8.' 1 d.(.h.r.8.x.h.h.",
"h.h.h.h.e.O.q n (.b.f.h.h.h.h.h.h.h.h.h.#.] s y./.x.h.h.h.h.h.h.h.h.h.h.h.h.h.@.U 9 d.^.x.8.O.h.h.h.",
"#.@.$.%.U q @ j L.!./.c.w.#.%.%.$.@.%.7.v w o { U.~.U.x.c.c.n.9.@.%.@.#.<.%.$.v w X 5.L.(.U.k.7.$.%.",
"P P L U y < @ d { ,.q.{ R H c K ( ( ! L r & X j | u.q.+.+. .{ R H H Y ( ( I P 2 # X T ;.g.,.+.U R c ",
"0 0 0 9 # X X X   & *   X X   > M M 4 0 @ X X . . m 7 9 0 *   . X . > M m 7 0 % o o   o i 1 8 0 &   ",
"G.G.G.F.z.e.B.S.S.F.S.w.k - ;.H.+XI.D.F.S.S.S.S.S.D.F.G.F.B.0.d ; 7.K.OXI.D.F.S.S.B.S.S.D.F.F.G.S.S.",
"^.^.^.!.A.t.T.!.^.^.T.P.R = H._.@X^.^.T.^.^.^.^.^.^.^.^.^.U.P.x 1 Y.`.@X^.^.^.!.!.^.^.^.^.R.^.R.^.^.",
"h.h.h.h.8.] h.h.h.h.l.XXX.t %X{.r.h.h.h.h.h.h.h.h.h.h.h.s.b.XXn z *X).r.h.h.h.h.h.h.h.h.h.h.h.h.h.h.",
"h.h.j.k.h.r.8.w.h.h.h.P.Q e |.R.h.h.k.h.h.h.h.h.h.h.h.j.h.h.L.b z .XI.h.h.h.h.h.h.h.h.h.h.h.h.h.h.h.",
"h.h.h.h.j.h.%.8.h.h.h.h.L r ^.D.h.h.h.h.h.h.h.h.h.h.h.h.h.h.h.c z ~.A.h.h.h.h.h.h.h.h.h.h.h.h.h.h.x.",
"h.h.k.h.h.h.h.h.h.x.h.#.J A /.U.h.h.h.h.h.h.h.h.h.h.h.h.h.r.#.S J (.D.h.h.h.h.h.h.h.h.h.h.h.h.h.h.h.",
"k.h.h.h.h.h.h.h.h.h.r.@.J A !.U.h.h.h.h.h.h.h.h.h.h.h.h.h.r.#.S G (.A.h.h.j.h.h.h.h.h.j.h.x.h.l.h.h.",
"h.h.h.h.h.h.h.h.h.h.r.@.K A !.I.h.h.h.h.h.h.h.h.h.h.h.h.h.r.O.D G /.A.h.h.j.h.h.h.h.h.h.h.h.h.h.h.h.",
"x.c.j.@.r.x.8.$.@.8.O.e < > x.U.(.b.c.c.c.j.#.r.x.%.$.$.#.o.t : p c.R.(.b.j.j.c.h.@.h.h.#.#.$.#.#.#.",
"@.;.5.( | 5.L L P ' K < % ; ) <.a.<. .5.5.5.( | 5.P L L ' H < % ; { <.a.5.5.5.5.| ( | 5.( L L ( K H ",
"9 7 N V M M 2 0 9 g s o o o . O 9 9 2 m M M N m M 0 0 0 M s o @ o   # 0 M m M M M N M M N 6 0 N s . "
};
