/* XPM */
static char *result[] = {
/* columns rows colors chars-per-pixel */
"15 15 155 2 ",
"   c gray98",
".  c white",
"X  c #F3F2F2",
"o  c #303233",
"O  c #202325",
"+  c #232629",
"@  c #232628",
"#  c #222628",
"$  c #232729",
"%  c #232426",
"&  c #383C3D",
"*  c #5C6363",
"=  c #F5F6F6",
"-  c #FBFBFB",
";  c #A2A9AA",
":  c #453F43",
">  c #B02E2E",
",  c #BE2929",
"<  c #C52C2B",
"1  c #C62E2D",
"2  c #C72E2D",
"3  c #C32D2D",
"4  c #C12928",
"5  c #662729",
"6  c #1C2E30",
"7  c #646769",
"8  c #C0C3C3",
"9  c #6D7576",
"0  c #814343",
"q  c #A01818",
"w  c #FF3231",
"e  c #B82A2A",
"r  c #671F21",
"t  c #691617",
"y  c #621416",
"u  c #711719",
"i  c #FF302F",
"p  c #D42C2B",
"a  c #912726",
"s  c #291D1F",
"d  c #545959",
"f  c #919495",
"g  c #010E0F",
"h  c #8F2221",
"j  c #FE3433",
"k  c #922527",
"l  c #4E2D2D",
"z  c #263B3E",
"x  c #7B8586",
"c  c #7F8E8F",
"v  c #7F8182",
"b  c #7E2B2E",
"n  c #C22B2A",
"m  c #EF3130",
"M  c #2E1C1D",
"N  c #283030",
"B  c #3E4346",
"V  c #152122",
"C  c #902927",
"Z  c #E1302E",
"A  c #1C1B1E",
"S  c #2A3437",
"D  c #5E6463",
"F  c #FFFAFB",
"G  c #142B2C",
"H  c #7D2424",
"J  c #E93031",
"K  c #2B1D1E",
"L  c #303838",
"P  c #4E5255",
"I  c #121E1F",
"U  c #902726",
"Y  c #E6302E",
"T  c #2E1D20",
"R  c #303236",
"E  c #555D5E",
"W  c #EFEFEF",
"Q  c #ECE9E9",
"!  c #242B2B",
"~  c #882525",
"^  c #EA3030",
"/  c #2B1C1D",
"(  c #2E3636",
")  c #4B4F53",
"_  c #E5302E",
"`  c #2A1C20",
"'  c #2E3336",
"]  c #565E5F",
"[  c #F2F3F2",
"{  c #EFECEC",
"}  c #212B2B",
"|  c #862525",
" . c #EA3031",
".. c #E2302E",
"X. c #1C1B1F",
"o. c #293437",
"O. c #5D6363",
"+. c #FEFAFA",
"@. c #152A2B",
"#. c #7E2424",
"$. c #303738",
"%. c #051012",
"&. c #8F2322",
"*. c #F93432",
"=. c #802326",
"-. c #492D30",
";. c #2E4244",
":. c #8F9899",
">. c #97A3A3",
",. c #919494",
"<. c #6D2B2D",
"1. c #B82A29",
"2. c #2D1C1D",
"3. c #293031",
"4. c #414549",
"5. c #575F60",
"6. c #843C3D",
"7. c #B31F1E",
"8. c #FF3131",
"9. c #AB2928",
"0. c #551D21",
"q. c #581417",
"w. c #4F1315",
"e. c #611517",
"r. c #FA2F2F",
"t. c #DD2C2C",
"y. c #A12929",
"u. c #2A1E1E",
"i. c #4C5051",
"p. c #7F8385",
"a. c #989D9F",
"s. c #3A3233",
"d. c #C0302F",
"f. c #CE2C2B",
"g. c #D22E2D",
"h. c #D4302F",
"j. c #D5302F",
"k. c #D0302E",
"l. c #D22C2C",
"z. c #6F2729",
"x. c #1C2C2D",
"c. c #555B5B",
"v. c #B6BABB",
"b. c #FBFBFC",
"n. c #EBE9E9",
"m. c #302A2C",
"M. c #201C1E",
"N. c #231F21",
"B. c #221F20",
"V. c #221F21",
"C. c #221C1E",
"Z. c #333434",
"A. c #545B5C",
"S. c #EEEFEF",
"D. c gray99",
/* pixels */
"  . X o O + @ # $ % & * = . - ",
". ; : > , < 1 2 3 4 5 6 7 8 . ",
"9 0 q w e r t y u i p a s d f ",
"g h j k l z x c v b n m M N B ",
"V C Z A S D . . F G H J K L P ",
"I U Y T R E W . Q ! ~ ^ / ( ) ",
"I U _ ` ' ] [ . { } |  ./ ( ) ",
"I U _ ` ' ] [ . { } |  ./ ( ) ",
"I U _ ` ' ] [ . { } |  ./ ( ) ",
"I U Y T R E W . Q ! ~ ^ / ( ) ",
"V C ..X.o.O.. . +.@.#.J K $.P ",
"%.&.*.=.-.;.:.>.,.<.1.m 2.3.4.",
"5.6.7.8.9.0.q.w.e.r.t.y.u.i.p.",
". a.s.d.f.g.h.j.k.l.z.x.c.v.. ",
"b.. n.m.M.N.B.V.N.C.Z.A.S.. D."
};
