/* XPM */
static char *result[] = {
/* columns rows colors chars-per-pixel */
"15 15 127 2 ",
"   c gray99",
".  c #FBFBFB",
"X  c #FFFEFE",
"o  c white",
"O  c #444243",
"+  c #1E1F21",
"@  c #282829",
"#  c #2A2627",
"$  c #2B292B",
"%  c #4B5152",
"&  c #3F4746",
"*  c #9DA1A0",
"=  c #BDC1C2",
"-  c #364142",
";  c #4A5051",
":  c #A72F2E",
">  c #CA2929",
",  c #742627",
"<  c #171B1D",
"1  c #252022",
"2  c #424B4A",
"3  c #36403F",
"4  c #9A9FA0",
"5  c #FBFCFA",
"6  c #6D6C6B",
"7  c #595C5E",
"8  c #7E4345",
"9  c #A71E1D",
"0  c #A82022",
"q  c #E52D2D",
"w  c #FF322F",
"e  c #942A2B",
"r  c #171C1E",
"t  c #272223",
"y  c #444C4C",
"u  c #374141",
"i  c #9B9FA0",
"p  c #8D8D8C",
"a  c #828486",
"s  c #8A5E5E",
"d  c #922425",
"f  c #952A2B",
"g  c #DA2D2C",
"h  c #F92E2F",
"j  c #8C2A29",
"k  c #181B1E",
"l  c #444C4B",
"z  c #374140",
"x  c #A9B0B0",
"c  c #010C0D",
"v  c #1E1F22",
"b  c #C62D2F",
"n  c #FD302F",
"m  c #8C2A2A",
"M  c #F8F8F8",
"N  c #A5A3A3",
"B  c #171012",
"V  c #312024",
"C  c #C82E30",
"Z  c #FC312F",
"A  c #A5A5A5",
"S  c #140F11",
"D  c #2E2024",
"F  c #C82D30",
"G  c #FC302F",
"H  c #F9F8F8",
"J  c #171011",
"K  c #FB302F",
"L  c #8E2A2A",
"P  c #1B1B1F",
"I  c #292223",
"U  c #444B4B",
"Y  c #999D9F",
"T  c #F8F9F7",
"R  c #A7ADAD",
"E  c #030D0E",
"W  c #201F23",
"Q  c #C42D2F",
"!  c #85292A",
"~  c #071A1D",
"^  c #192122",
"/  c #454E4F",
"(  c #394442",
")  c #A1A6A7",
"_  c #B5B6B5",
"`  c #B5B7B8",
"'  c #977878",
"]  c #6B1D1D",
"[  c #782628",
"{  c #E12D2C",
"}  c #FF2F2F",
"|  c #B92B2B",
" . c #6A2424",
".. c #702728",
"X. c #413D40",
"o. c #2F3335",
"O. c #787A7C",
"+. c #C6C9C9",
"@. c #BDBEBF",
"#. c #2E2829",
"$. c #08070B",
"%. c #5D1A1B",
"&. c #CE2F2C",
"*. c #C5292A",
"=. c #BD2928",
"-. c #BA2928",
";. c #C02A29",
":. c #CA2B2A",
">. c #BB2B2A",
",. c #311B1E",
"<. c #191719",
"1. c #2E2B2E",
"2. c #384341",
"3. c #3C4243",
"4. c #423F40",
"5. c #2A282A",
"6. c #232526",
"7. c #232527",
"8. c #242628",
"9. c #252627",
"0. c #242527",
"q. c #222527",
"w. c #2A272A",
"e. c #282425",
"r. c #3B3C3E",
"t. c #4F5857",
"y. c #525756",
/* pixels */
"  . X o o O + @ # $ % & * o   ",
"o o = - ; : > , < 1 2 3 4 o 5 ",
"6 7 8 9 0 q w e r t y u i o 5 ",
"p a s d f g h j k t l z 4 o 5 ",
"o o x c v b n m k t l z 4 o 5 ",
"M o N B V C Z m k t l z 4 o 5 ",
". o A S D F G m k t l z 4 o 5 ",
". o A S D F G m k t l z 4 o 5 ",
". o A S D F G m k t l z 4 o 5 ",
". o A S D F G m k t l z 4 o 5 ",
"H o N J V F K L P I U z Y o T ",
"o o R E W Q K ! ~ ^ / ( ) o o ",
"_ ` ' ] [ { } |  ...X.o.O.+.@.",
"#.$.%.&.*.=.-.;.:.>.,.<.1.2.3.",
"4.# 5.6.7.8.9.0.q.7.w.e.r.t.y."
};
