/* XPM */
static char *result[] = {
/* columns rows colors chars-per-pixel */
"15 15 192 2 ",
"   c gray98",
".  c white",
"X  c #F7F7F6",
"o  c #373738",
"O  c #1F2223",
"+  c #232728",
"@  c #222627",
"#  c #232425",
"$  c #373A3D",
"%  c #636868",
"&  c #F9F9FA",
"*  c #FBFBFB",
"=  c #AEB4B6",
"-  c #3B3D3F",
";  c #B02F2F",
":  c #C22928",
">  c #C72C2A",
",  c #C92E2C",
"<  c #CA2F2C",
"1  c #C62E2C",
"2  c #C42A28",
"3  c #602525",
"4  c #1D3133",
"5  c #626869",
"6  c #C7CACB",
"7  c #71797A",
"8  c #864C4A",
"9  c #B21E1E",
"0  c #FF3433",
"q  c #BE2D2C",
"w  c #672223",
"e  c #681517",
"r  c #5F1315",
"t  c #711619",
"y  c #FF302F",
"u  c #D32B2B",
"i  c #8F282A",
"p  c #261F21",
"a  c #585E60",
"s  c #939898",
"d  c #030709",
"f  c #3D0C0B",
"g  c #8B1D1D",
"h  c #7A1617",
"j  c #441F21",
"k  c #1A3236",
"l  c #7E8789",
"z  c #839193",
"x  c #808282",
"c  c #7B2A2B",
"v  c #C92A2B",
"b  c #E8302F",
"n  c #2A1B1D",
"m  c #2B2F32",
"M  c #474F50",
"N  c #7B7979",
"B  c #6C7173",
"V  c #616F71",
"C  c #616C6D",
"Z  c #767C7D",
"A  c #989C9A",
"S  c #082728",
"D  c #832324",
"F  c #E1302F",
"G  c #271C1E",
"H  c #35383C",
"J  c #575E5F",
"K  c #E2E6E6",
"L  c #B5B4B3",
"P  c #4C292A",
"I  c #AD2728",
"U  c #E5302F",
"Y  c #281B1D",
"T  c #2F3236",
"R  c #4E5557",
"E  c #FCFBFB",
"W  c #FDFDFD",
"Q  c #E1E2E3",
"!  c #DFE0E0",
"~  c #DDDFDE",
"^  c #EFF1F1",
"/  c #81797A",
"(  c #380C0E",
")  c #EB3130",
"_  c #E82D2E",
"`  c #BD2D2B",
"'  c #291F21",
"]  c #404346",
"[  c #696E70",
"{  c #FFFEFE",
"}  c #EBEAEA",
"|  c #3F3536",
" . c #2B2022",
".. c #322627",
"X. c #232326",
"o. c #8B2929",
"O. c #EF2E2D",
"+. c #EA312F",
"@. c #7D2626",
"#. c #26272A",
"$. c #3E4142",
"%. c #ADB0B2",
"&. c #A5A7A8",
"*. c #2D2627",
"=. c #C22F2E",
"-. c #D62B29",
";. c #D82D2C",
":. c #D62F2E",
">. c #EB3231",
",. c #E63131",
"<. c #462022",
"1. c #322F2F",
"2. c #4B5355",
"3. c #DDDFE0",
"4. c #F8F7F8",
"5. c #545D5E",
"6. c #7D3D3E",
"7. c #BC2122",
"8. c #FF3231",
"9. c #AE282A",
"0. c #481D1E",
"q. c #4A1314",
"w. c #440F11",
"e. c #401617",
"r. c #1D2526",
"t. c #808686",
"y. c #DEDFDF",
"u. c #FBFAFB",
"i. c #FEFEFE",
"p. c #0D181A",
"a. c #7B2020",
"s. c #FA3431",
"d. c #6B2124",
"f. c #422E31",
"g. c #3B4949",
"h. c #ABB3B2",
"j. c #B6BCBD",
"k. c #B7BDBD",
"l. c #C8C9C7",
"z. c #F7F5F5",
"x. c #1F292B",
"c. c #7D2728",
"v. c #E9302E",
"b. c #812425",
"n. c #4B2D2F",
"m. c #2D4144",
"M. c #8E9798",
"N. c #95A0A1",
"B. c #929D9E",
"V. c #8F9B9D",
"C. c #869394",
"Z. c #818D8D",
"A. c #918E8F",
"S. c #9A9C9C",
"D. c #A8ADAC",
"F. c #0E191B",
"G. c #791F1F",
"H. c #FF3230",
"J. c #FF322E",
"K. c #BA2928",
"L. c #651E1F",
"P. c #631214",
"I. c #5F1012",
"U. c #5F1112",
"Y. c #5F1113",
"T. c #631314",
"R. c #5B1417",
"E. c #140B0D",
"W. c #25272B",
"Q. c #464E4F",
"!. c #505758",
"~. c #7E3D3D",
"^. c #C32725",
"/. c #B62A28",
"(. c #BF2A29",
"). c #C82C2A",
"_. c #CA2E2C",
"`. c #CE2F2C",
"'. c #B92E2C",
"]. c #291E20",
"[. c #35373B",
"{. c #545C5D",
"}. c #9C9D9E",
"|. c #141517",
" X c #28292B",
".X c #232627",
"XX c #212527",
"oX c #222527",
"OX c #232628",
"+X c #282325",
"@X c #3B3D40",
"#X c #586060",
/* pixels */
"  . X o O + @ @ + # $ % & . * ",
". = - ; : > , < 1 2 3 4 5 6 . ",
"7 8 9 0 q w e r t y u i p a s ",
"d f g h j k l z x c v b n m M ",
"N B V C Z A . . . S D F G H J ",
". . . . . . . K L P I U Y T R ",
"E W E Q ! ~ ^ / ( ) _ ` ' ] [ ",
"W { } |  ...X.o.O.+.@.#.$.%.. ",
". &.*.=.-.;.:.>.,.<.1.2.3.4.. ",
"5.6.7.8.9.0.q.w.e.r.t.y.u.i.* ",
"p.a.s.d.f.g.h.j.k.l.z.. . . . ",
"x.c.v.b.n.m.M.N.B.V.C.Z.A.S.D.",
"F.G.H.J.K.L.P.I.U.Y.T.R.E.W.Q.",
"!.~.^./.(.)., _._., `.'.].[.{.",
". }.|. X.XXXoXoXoXoXoXOX+X@X#X"
};
