/* XPM */
static char *result[] = {
/* columns rows colors chars-per-pixel */
"15 15 192 2 ",
"   c gray98",
".  c white",
"X  c #FBF9F9",
"o  c #38393A",
"O  c #1E2123",
"+  c #232728",
"@  c #222627",
"#  c #212627",
"$  c #222728",
"%  c #232325",
"&  c #373B3B",
"*  c #5E6263",
"=  c #F4F4F4",
"-  c #FBFBFB",
";  c #ACB4B4",
":  c #3A3F3F",
">  c #AE302E",
",  c #C12927",
"<  c #C62C2A",
"1  c #C92E2C",
"2  c #C92F2C",
"3  c #C62E2C",
"4  c #C42A28",
"5  c #6A2626",
"6  c #1C2E31",
"7  c #606767",
"8  c #BCC1C0",
"9  c #727A7C",
"0  c #8B4C4D",
"q  c #AD1E1E",
"w  c #FF3434",
"e  c #C32D2E",
"r  c #692223",
"t  c #6A1618",
"y  c #611213",
"u  c #6D1114",
"i  c #FE302E",
"p  c #D82D2B",
"a  c #902929",
"s  c #272021",
"d  c #54595A",
"f  c #909594",
"g  c #020507",
"h  c #420D0F",
"j  c #901D1F",
"k  c #7E1718",
"l  c #461E1E",
"z  c #162E2F",
"x  c #747F81",
"c  c #889596",
"v  c #919294",
"b  c #6F2E2E",
"n  c #BB282A",
"m  c #EC3230",
"M  c #2D1C1F",
"N  c #2A3031",
"B  c #3E4846",
"V  c #767373",
"C  c #676D6D",
"Z  c #5D6B6C",
"A  c #5C6969",
"S  c #777F7F",
"D  c #9CA1A0",
"F  c #F0F3F2",
"G  c #AFAEAF",
"H  c #552F2E",
"J  c #A62626",
"K  c #EA3130",
"L  c #2C1C1F",
"P  c #2C3334",
"I  c #434D4C",
"U  c #F6F3F4",
"Y  c #D5D4D4",
"T  c #D5DCDC",
"R  c #7F7071",
"E  c #3D0303",
"W  c #F33131",
"Q  c #E52E2D",
"!  c #AF2B29",
"~  c #2A1F1F",
"^  c #44494A",
"/  c #727777",
"(  c gray99",
")  c #F9F8F8",
"_  c #8E8E8E",
"`  c #10080A",
"'  c #271D1E",
"]  c #8E2628",
"[  c #F63433",
"{  c #DE2E2E",
"}  c #792728",
"|  c #1E292A",
" . c #484F4F",
".. c #ADB0B1",
"X. c #919594",
"o. c #211314",
"O. c #D13634",
"+. c #E93030",
"@. c #D92E2F",
"#. c #3D1E1E",
"$. c #363034",
"%. c #55585A",
"&. c #E3E5E5",
"*. c #FBFAFB",
"=. c #FDFDFD",
"-. c #FCFBFB",
";. c #F8F8F8",
":. c #8B8B8B",
">. c #0A0103",
",. c #2C1719",
"<. c #942327",
"1. c #FB3534",
"2. c #D32D2D",
"3. c #712829",
"4. c #1D2B2E",
"5. c #53595A",
"6. c #B5B8B9",
"7. c #EFEDED",
"8. c #C5C2C3",
"9. c #BFCAC9",
"0. c #7C676A",
"q. c #4B0504",
"w. c #F93131",
"e. c #DE2D2D",
"r. c #9F2A28",
"t. c #2A1F21",
"y. c #4B5152",
"u. c #7F8584",
"i. c #848182",
"p. c #767C7C",
"a. c #6C7B7B",
"s. c #6C7878",
"d. c #868E8E",
"f. c #AAAFAD",
"g. c #E8ECEB",
"h. c #9E9E9F",
"j. c #60302F",
"k. c #AE2826",
"l. c #EC322F",
"z. c #2B3233",
"x. c #404A49",
"c. c #040607",
"v. c #3B0C0E",
"b. c #7F1A1C",
"n. c #6E1416",
"m. c #401E1E",
"M. c #1A3132",
"N. c #838D8E",
"B. c #9AA5A6",
"V. c #A1A2A3",
"C. c #632D2E",
"Z. c #B22729",
"A. c #EB3230",
"S. c #2B3132",
"D. c #404A48",
"F. c #626B6C",
"G. c #8B4647",
"H. c #BD2323",
"J. c #BA2C2D",
"K. c #592022",
"L. c #5B1517",
"P. c #511012",
"I. c #5F1013",
"U. c #F92F2E",
"Y. c #DE2E2C",
"T. c #9D2A29",
"R. c #282020",
"E. c #4E5254",
"W. c #838888",
"Q. c #A6ACAD",
"!. c #313333",
"~. c #B9312F",
"^. c #CD2C2A",
"/. c #D02E2C",
"(. c #D3302E",
"). c #D3312E",
"_. c #D0302E",
"`. c #D12C2B",
"'. c #722727",
"]. c #1D2D2F",
"[. c #565D5D",
"{. c #B5BABA",
"}. c #F4F2F2",
"|. c #363333",
" X c #1D1A1B",
".X c #212021",
"XX c #201F20",
"oX c #211F21",
"OX c #221B1E",
"+X c #323334",
"@X c #565B5C",
"#X c #EFEFEF",
/* pixels */
"  . X o O + @ # $ % & * = . - ",
". ; : > , < 1 2 3 4 5 6 7 8 . ",
"9 0 q w e r t y u i p a s d f ",
"g h j k l z x c v b n m M N B ",
"V C Z A S D . F G H J K L P I ",
". . . . U Y T R E W Q ! ~ ^ / ",
"( ( ) . _ ` ' ] [ { } |  .... ",
". . - . X.o.O.+.@.#.$.%.&.*.=.",
"( -.;.. :.>.,.<.1.2.3.4.5.6.. ",
". . . . 7.8.9.0.q.w.e.r.t.y.u.",
"i.p.a.s.d.f.. g.h.j.k.l.L z.x.",
"c.v.b.n.m.M.N.B.V.C.Z.A.L S.D.",
"F.G.H.w J.K.L.P.I.U.Y.T.R.E.W.",
". Q.!.~.^./.(.)._.`.'.].[.{.. ",
"- . }.|. X.XXXXXoXOX+X@X#X. ( "
};
