/* XPM */
static char *result[] = {
/* columns rows colors chars-per-pixel */
"15 15 151 2 ",
"   c white",
".  c #F9F9F9",
"X  c #DBDAD9",
"o  c #222224",
"O  c #222628",
"+  c #222627",
"@  c #252728",
"#  c #272325",
"$  c #373639",
"%  c #4F5758",
"&  c #FEFEFE",
"*  c #F8F8F8",
"=  c #A3ACAC",
"-  c #4D3A3C",
";  c #B92C2A",
":  c #C32B29",
">  c #C72B29",
",  c #C32A28",
"<  c #C12B2A",
"1  c #4A1D1E",
"2  c #262D30",
"3  c #4A5052",
"4  c gray99",
"5  c #79888A",
"6  c #713D3E",
"7  c #AC1E1D",
"8  c #FF3332",
"9  c #952627",
"0  c #6B2325",
"q  c #872626",
"w  c #FA3230",
"e  c #5C2020",
"r  c #252E32",
"t  c #4D5153",
"y  c gray98",
"u  c #EBEEEE",
"i  c #808788",
"p  c #6D2628",
"a  c #C42222",
"s  c #F83432",
"d  c #852425",
"f  c #30292B",
"g  c #0C2326",
"h  c #2F1E1F",
"j  c #E9312F",
"k  c #591F1F",
"l  c #252E31",
"z  c #4C5153",
"x  c #D4DBDB",
"c  c #8A8080",
"v  c #570F0F",
"b  c #EE322F",
"n  c #DC2E2E",
"m  c #7D2626",
"M  c #142022",
"N  c #797F7E",
"B  c #5C6060",
"V  c #371719",
"C  c #ED3331",
"Z  c #5A1F20",
"A  c #DFDFDF",
"S  c #716062",
"D  c #610E0E",
"F  c #FF3735",
"G  c #D22C2C",
"H  c #672627",
"J  c #243739",
"K  c #717172",
"L  c #A8AAAB",
"P  c #2A0E0F",
"I  c #F03533",
"U  c #151E20",
"Y  c #942728",
"T  c #FE3330",
"R  c #E12F2C",
"E  c #3D1D1F",
"W  c #232E2C",
"Q  c #666A69",
"!  c #E8E9E9",
"~  c gray96",
"^  c #888C8D",
"/  c #2D1213",
"(  c #EF3432",
")  c #5A1F1F",
"_  c #1D2729",
"`  c #932829",
"'  c #F62F2F",
"]  c #E22E2D",
"[  c #432021",
"{  c #1E1F20",
"}  c #282223",
"|  c #2D2729",
" . c #30282A",
".. c #232324",
"X. c #3C2021",
"o. c #ED312E",
"O. c #591F20",
"+. c #0F181B",
"@. c #952525",
"#. c #FF3635",
"$. c #F13232",
"%. c #DD3130",
"&. c #D73130",
"*. c #D7302F",
"=. c #D52E2D",
"-. c #D72F2E",
";. c #D02D2C",
":. c #CC2B2D",
">. c #F1302F",
",. c #582020",
"<. c #C9CCCD",
"1. c #7A5A5B",
"2. c #430707",
"3. c #4D1617",
"4. c #511415",
"5. c #521415",
"6. c #551516",
"7. c #461313",
"8. c #9E2020",
"9. c #FF2F32",
"0. c #F02F2F",
"q. c #C6CBCB",
"w. c #8F9798",
"e. c #99A1A2",
"r. c #969FA0",
"t. c #959D9E",
"y. c #98A8A9",
"u. c #816869",
"i. c #801D1E",
"p. c #F03231",
"a. c #FBFBFB",
"s. c #9BA3A4",
"d. c #1E0E10",
"f. c #ED3533",
"g. c #FDFDFD",
"h. c #FCFBFB",
"j. c #97999A",
"k. c #301112",
"l. c #F83533",
"z. c #242E31",
"x. c #999B9C",
"c. c #271012",
"v. c #CD3130",
"b. c #501F20",
"n. c #262E31",
"m. c #9E9C9C",
"M. c #130F10",
"N. c #282224",
"B. c #211B1D",
"V. c #2F2F32",
"C. c #495152",
/* pixels */
"        .   X o O O + @ # $ % ",
"    & *   = - ; : > , < 1 2 3 ",
"  4     5 6 7 8 9 0 q w e r t ",
"y   u i p a s d f g h j k l z ",
"  x c v b n m M N B V C Z l z ",
"A S D F G H J K   L P I Z l z ",
"U Y T R E W Q ! ~ ^ / ( ) l z ",
"_ ` ' ] [ { } |  ...X.o.O.l z ",
"+.@.#.$.%.&.*.=.-.;.:.>.,.l z ",
"<.1.2.3.4.5.5.6.7.8.9.0.,.l z ",
"  q.w.e.r.r.r.t.y.u.i.p.k l z ",
"a.                s.d.f.k l z ",
"  g.a.4 h.h.h.*   j.k.l.e z.z ",
"              h.  x.c.v.b.n.z ",
"              a.  m.M.N.B.V.C."
};
