/* XPM */
static char *result[] = {
/* columns rows colors chars-per-pixel */
"15 15 190 2 ",
"   c white",
".  c #B8B9BA",
"X  c #161819",
"o  c #28292A",
"O  c #242628",
"+  c #222627",
"@  c #222628",
"#  c #232527",
"$  c #272628",
"%  c #282526",
"&  c #414444",
"*  c #575F5E",
"=  c #4E5555",
"-  c #744142",
";  c #C12826",
":  c #B82A28",
">  c #B92928",
",  c #C52B29",
"<  c #C82D2A",
"1  c #CA2F2C",
"2  c #CA2E2C",
"3  c #C72E2C",
"4  c #D52F2E",
"5  c #8A292A",
"6  c #1A1D1F",
"7  c #3C4040",
"8  c #555B5A",
"9  c #0E1718",
"0  c #601A1D",
"q  c #FE3132",
"w  c #FE2F2F",
"e  c #F72F2F",
"r  c #7A2324",
"t  c #6A1C1E",
"y  c #631315",
"u  c #631416",
"i  c #621415",
"p  c #681516",
"a  c #421414",
"s  c #0C0C0E",
"d  c #2C3031",
"f  c #474D4D",
"g  c #1D2426",
"h  c #632325",
"j  c #F8302F",
"k  c #A52928",
"l  c #782829",
"z  c #262F2F",
"x  c #445556",
"c  c #869293",
"v  c #7F8B8C",
"b  c #808C8E",
"n  c #888E90",
"m  c #928F90",
"M  c #9D9F9F",
"N  c #A9ACAC",
"B  c #1C2425",
"V  c #622224",
"C  c #FF3130",
"Z  c #532223",
"A  c #052324",
"S  c #404144",
"D  c #999B9D",
"F  c #141C1E",
"G  c #601D20",
"H  c #FF3330",
"J  c #872527",
"K  c #482726",
"L  c #313638",
"P  c #687273",
"I  c #CCD0D0",
"U  c #C1C6C6",
"Y  c #C6CACA",
"T  c #CFD0D1",
"R  c gray89",
"E  c #FCFCFD",
"W  c #FBFBFB",
"Q  c #343D3E",
"!  c #6E3133",
"~  c #D8292A",
"^  c #E72E2D",
"/  c #E32F2E",
"(  c #462122",
")  c #361D1E",
"_  c #371A1B",
"`  c #34191A",
"'  c #362022",
"]  c #2F3337",
"[  c #7E8485",
"{  c #F2F3F3",
"}  c #F6F7F7",
"|  c #B7B2B1",
" . c #171619",
".. c #A82E30",
"X. c #EF302F",
"o. c #DC302E",
"O. c #DF312F",
"+. c #DF3130",
"@. c #E7302F",
"#. c #CF302E",
"$. c #321E20",
"%. c #363638",
"&. c #434A4B",
"*. c #C7C9C9",
"=. c gray94",
"-. c #E5E9E8",
";. c #695959",
":. c #25090B",
">. c #371B1D",
",. c #35191A",
"<. c #2C1618",
"1. c #B6282B",
"2. c #F63031",
"3. c #DF2C2C",
"4. c #8C2A2B",
"5. c #181F21",
"6. c #4A4E4F",
"7. c #676C6D",
"8. c #E9E9EA",
"9. c #CFD1D1",
"0. c #BDC2C2",
"q. c #C3CBCB",
"w. c #6F5254",
"e. c #5D1A1A",
"r. c #F83232",
"t. c #9F282A",
"y. c #121B1D",
"u. c #383A3B",
"i. c #4E5454",
"p. c #767475",
"a. c #6D7070",
"s. c #636E6F",
"d. c #6A7575",
"f. c #7D8788",
"g. c #59696A",
"h. c #120E10",
"j. c #EC3133",
"k. c #9B292A",
"l. c #131D1F",
"z. c #3F4142",
"x. c #575D5C",
"c. c #161619",
"v. c #351214",
"b. c #7A181A",
"n. c #711314",
"m. c #701E1E",
"M. c #808D8E",
"N. c #809191",
"B. c #7E4548",
"V. c #8F2122",
"C. c #FF3132",
"Z. c #A3282B",
"A. c #333536",
"S. c #474E4D",
"D. c #111A1C",
"F. c #681E21",
"G. c #FF3636",
"H. c #FF3434",
"J. c #F83131",
"K. c #6D1717",
"L. c #5D1214",
"P. c #D32828",
"I. c #FD3232",
"U. c #AE2727",
"Y. c #72262A",
"T. c #1A2123",
"R. c #6A6E6E",
"E. c #939696",
"W. c #734142",
"Q. c #BD2726",
"!. c #B72928",
"~. c #BA2928",
"^. c #C92E2C",
"/. c #CA2E2D",
"(. c #C92F2D",
"). c #C12B29",
"_. c #A72B29",
"`. c #202022",
"'. c #3E474A",
"]. c #6D7374",
"[. c #DDDEDE",
"{. c #B8B9B9",
"}. c #27292A",
"|. c #242627",
" X c #222527",
".X c #232426",
"XX c #2D2D2F",
"oX c #404647",
"OX c #959798",
"+X c gray99",
/* pixels */
"  . X o O + + + + @ # $ % & * ",
"= - ; : > , < 1 2 3 4 5 6 7 8 ",
"9 0 q w e r t y u i p a s d f ",
"g h j k l z x c v b b n m M N ",
"B V C Z A S D                 ",
"F G H J K L P I U Y T R   E W ",
"Q ! ~ ^ / ( ) _ ` ' ] [ { }   ",
"  |  ...X.o.O.+.@.#.$.%.&.*.  ",
"  =.-.;.:.>.,.<.1.2.3.4.5.6.7.",
"      8.9.U 0.q.w.e.r.t.y.u.i.",
"p.a.s.d.f.      g.h.j.k.l.z.x.",
"c.v.b.n.m.[ M.N.B.V.C.Z.y.A.S.",
"D.F.G.H.J.K.i L.P.I.U.Y.T.R.E.",
"= W.Q.!.~.^./.(.)._.`.'.].[.  ",
"  {.X }.|.+  X+ .XXXoXOX  W +X"
};
