/* XPM */
static char *result[] = {
/* columns rows colors chars-per-pixel */
"15 15 196 2 ",
"   c gray98",
".  c white",
"X  c #FCFAFA",
"o  c #3A3A3C",
"O  c #1F1F22",
"+  c #232628",
"@  c #222527",
"#  c #222628",
"$  c #222324",
"%  c #38383B",
"&  c #5A5F61",
"*  c #EFF1F1",
"=  c #FBFBFB",
"-  c #AFB4B5",
";  c #3D3E40",
":  c #AE3030",
">  c #C32928",
",  c #C92C2B",
"<  c #CB2E2D",
"1  c #CC2E2E",
"2  c #C82E2D",
"3  c #C52B29",
"4  c #6C2629",
"5  c #172C30",
"6  c #5E6465",
"7  c #BABDBE",
"8  c #6F7576",
"9  c #7D4746",
"0  c #A11918",
"q  c #FF302F",
"w  c #C02B2B",
"e  c #641F22",
"r  c #661618",
"t  c #5F1316",
"y  c #6B1517",
"u  c #FC3230",
"i  c #E43030",
"p  c #A82D2C",
"a  c #322124",
"s  c #52595A",
"d  c #8E9392",
"f  c #0B1619",
"g  c #7B1F1E",
"h  c #FF3433",
"j  c #952528",
"k  c #542B2F",
"l  c #223939",
"z  c #788182",
"x  c #808E8F",
"c  c #7B8282",
"v  c #731E20",
"b  c #7D1415",
"n  c #80181B",
"m  c #1C0D0F",
"M  c #1C2322",
"N  c #31393A",
"B  c #1D292B",
"V  c #7E2626",
"C  c #EB3030",
"Z  c #1C191E",
"A  c #203334",
"S  c #5D6161",
"D  c #7B8485",
"F  c #677273",
"G  c #697576",
"H  c #6D6C6C",
"J  c #7B7D7C",
"K  c #8A908F",
"L  c #1A2627",
"P  c #7C2524",
"I  c #F23030",
"U  c #612023",
"Y  c #3F2F30",
"T  c #3D4B4A",
"R  c #B8BCBC",
"E  c #C8CBCC",
"W  c #C6C9CA",
"Q  c #D7D9D9",
"!  c #DFE0DF",
"~  c #E9E8E8",
"^  c #1A2628",
"/  c #7A2524",
"(  c #F72F30",
")  c #F82F2F",
"_  c #9B2727",
"`  c #2A1D1E",
"'  c #341B1C",
"]  c #31191C",
"[  c #311A1C",
"{  c #2E1416",
"}  c #322829",
"|  c #434B4C",
" . c #D5D7D7",
".. c #F6F6F6",
"X. c #FEFDFE",
"o. c #FA2F30",
"O. c #E72C2F",
"+. c #E22E2E",
"@. c #DD2F2D",
"#. c #E0312F",
"$. c #E03130",
"%. c #DC312F",
"&. c #ED302F",
"*. c #872829",
"=. c #212528",
"-. c #3E4243",
";. c #A2A5A5",
":. c #F72F2F",
">. c #FB2F2F",
",. c #A02829",
"<. c #321D1E",
"1. c #3C181A",
"2. c #351718",
"3. c #43171A",
"4. c #E62D2C",
"5. c #E82E2E",
"6. c #C12C2D",
"7. c #331D20",
"8. c #3C4344",
"9. c #646A6B",
"0. c #7C2525",
"q. c #F2302F",
"w. c #692123",
"e. c #432E2F",
"r. c #384847",
"t. c #ADB3B2",
"y. c #BFC5C5",
"u. c #B5B4B4",
"i. c #552E30",
"p. c #A42526",
"a. c #F03130",
"s. c #331B1D",
"d. c #2A3331",
"f. c #444A4C",
"g. c #EC3030",
"h. c #1F3334",
"j. c #5D6160",
"k. c #123032",
"l. c #712121",
"z. c #EB3130",
"x. c #311C1E",
"c. c #2F3837",
"v. c #4E5456",
"b. c #0C181A",
"n. c #7B1F1F",
"m. c #FF3432",
"M. c #8C2526",
"N. c #502C2F",
"B. c #283D3F",
"V. c #858E8F",
"C. c #8F9C9D",
"Z. c #8C8F91",
"A. c #732E2F",
"S. c #B82929",
"D. c #F43030",
"F. c #341B1E",
"G. c #28302F",
"H. c #3F4547",
"J. c #7E4242",
"K. c #AB1C1B",
"L. c #FF312E",
"P. c #BA2A2A",
"I. c #581D21",
"U. c #5A1516",
"Y. c #531314",
"T. c #601417",
"R. c #F62E2E",
"E. c #DF2C2B",
"W. c #9E2928",
"Q. c #2E1D21",
"!. c #4B5152",
"~. c #848788",
"^. c #ABAFB0",
"/. c #363637",
"(. c #B53130",
"). c #CB2B2B",
"_. c #CE2E2D",
"`. c #D0302F",
"'. c #D1302F",
"]. c #CD302F",
"[. c #CE2C2C",
"{. c #722728",
"}. c #1A2C2E",
"|. c #575D5E",
" X c #B5B9BA",
".X c #F7F5F5",
"XX c #383436",
"oX c #1D191C",
"OX c #222022",
"+X c #211E21",
"@X c #211F22",
"#X c #211C1E",
"$X c #333335",
"%X c #53595A",
"&X c #ECEDED",
"*X c gray99",
/* pixels */
"  . X o O + @ @ # $ % & * . = ",
". - ; : > , < 1 2 3 4 5 6 7 . ",
"8 9 0 q w e r t y u i p a s d ",
"f g h j k l z x c v b n m M N ",
"B V C Z A S . . . D F G H J K ",
"L P I U Y T R E W Q ! ~ . . . ",
"^ / ( ) _ ` ' ] [ { } |  ...X.",
"^ / o.O.+.@.#.$.%.&.*.=.-.;.. ",
"L / :.>.,.<.1.2.3.4.5.6.7.8.9.",
"L 0.q.w.e.r.t.y.u.i.p.a.s.d.f.",
"B V g.Z h.j.. . . k.l.z.x.c.v.",
"b.n.m.M.N.B.V.C.Z.A.S.D.F.G.H.",
"9.J.K.L.P.I.U.Y.T.R.E.W.Q.!.~.",
". ^./.(.)._.`.'.].[.{.}.|. X. ",
"= . .XXXoXOX+X+X@X#X$X%X&X. *X"
};
