/* XPM */
static char *result[] = {
/* columns rows colors chars-per-pixel */
"15 15 150 2 ",
"   c #F9F9F9",
".  c white",
"X  c #D0CFCF",
"o  c #1C1D20",
"O  c #242628",
"+  c #222527",
"@  c #222426",
"#  c #2C2C2E",
"$  c #454A4B",
"%  c gray81",
"&  c #F9FAFA",
"*  c #94A4A4",
"=  c #513638",
"-  c #C02B2B",
";  c #C52B2A",
":  c #CA2D2C",
">  c #CB2F2E",
",  c #CB2E2D",
"<  c #C72C2B",
"1  c #A42B29",
"2  c #232526",
"3  c #4C5557",
"4  c #AAAEAE",
"5  c #5D6365",
"6  c #83393A",
"7  c #C72323",
"8  c #FF3534",
"9  c #892728",
"0  c #651B1E",
"q  c #621315",
"w  c #651517",
"e  c #530F11",
"r  c #A71F20",
"t  c #FF3233",
"y  c #AC2827",
"u  c #441E21",
"i  c #40484A",
"p  c #8C8E8E",
"a  c #848B8B",
"s  c #844646",
"d  c #861213",
"f  c #781A1D",
"g  c #201E20",
"h  c #4A5A5C",
"j  c #889394",
"k  c #7C8687",
"l  c #8F9FA0",
"z  c #81686B",
"x  c #821D1F",
"c  c #FB3234",
"v  c #602023",
"b  c #1E2A2B",
"n  c #424647",
"m  c #ABB3B3",
"M  c #516060",
"N  c #667172",
"B  c #7B7F7F",
"V  c #CDCECD",
"C  c #D4DBDC",
"Z  c #867677",
"A  c #651919",
"S  c #F73233",
"D  c #5E2022",
"F  c #202B2D",
"G  c #464A4A",
"H  c gray98",
"J  c #F4F4F4",
"K  c #C8CBCB",
"L  c #4B3535",
"P  c #891618",
"I  c #FF3434",
"U  c #C52B2C",
"Y  c #4C2024",
"T  c #364042",
"R  c #747879",
"E  c #FDFDFD",
"W  c gray99",
"Q  c #F8FAF9",
"!  c #C4C0C1",
"~  c #2A1719",
"^  c #C72E2D",
"/  c #F33131",
"(  c #B92C2C",
")  c #292023",
"_  c #3A4144",
"`  c #989B9D",
"'  c #FBFBFB",
"]  c #8C9090",
"[  c #3E1B19",
"{  c #E13232",
"}  c #F2302E",
"|  c #982728",
" . c #26272A",
".. c #414346",
"X. c #C2C5C5",
"o. c #FDFAFA",
"O. c #565B5D",
"+. c #7E2D2E",
"@. c #DC2B29",
"#. c #F63031",
"$. c #662022",
"%. c #2D2728",
"&. c #4B5456",
"*. c #DDDEDE",
"=. c #FEFEFE",
"-. c #253A3C",
";. c #7A1B1B",
":. c #E53131",
">. c #562425",
",. c #343233",
"<. c #757F80",
"1. c gray88",
"2. c #DEDFDF",
"3. c #797476",
"4. c #8C3637",
"5. c #D22A29",
"6. c #D52D2C",
"7. c #151D1D",
"8. c #252A2C",
"9. c #949799",
"0. c #FEFEFF",
"q. c #C6C5C6",
"w. c #0C0608",
"e. c #D92C2B",
"r. c #D02C2B",
"t. c #792A2A",
"y. c #353232",
"u. c #797B7C",
"i. c #C5C7C8",
"p. c #CBCACA",
"a. c #1D191C",
"s. c #DF302F",
"d. c #862626",
"f. c #0E2627",
"g. c #464A4B",
"h. c #E1E3E3",
"j. c #CAC9C9",
"k. c #1A1618",
"l. c #B82C2C",
"z. c #792525",
"x. c #202728",
"c. c #434747",
"v. c #D3D5D5",
"b. c gray79",
"n. c #1B1819",
"m. c #252122",
"M. c #231D1F",
"N. c #2A2829",
"B. c #404847",
"V. c #D5D8D7",
/* pixels */
"  . X o O + + + + @ # $ % . & ",
". * = - ; : > , > < 1 2 3 4 . ",
"5 6 7 8 9 0 q w e r t y u i p ",
"a s d f g h j k l z x c v b n ",
". m M N B V . . C Z A S D F G ",
"H . . . . . J K L P I U Y T R ",
". E W W E Q ! ~ ^ / ( ) _ ` . ",
". . . ' . ] [ { } |  ...X.. W ",
". . . o.O.+.@.#.$.%.&.*.H . =.",
". =.. . -.;.:.>.,.<.1.. . =.. ",
"E . 2.3.4.5.6.7.8.9.. ' 0.. . ",
"W . q.w.e.r.t.y.u.i.. E . . . ",
"W . p.a.s.d.f.g.h.. W . . . . ",
"W . j.k.l.z.x.c.v.. E . . . . ",
"W . b.n.m.M.N.B.V.. E . . . . "
};
