/* XPM */
static char *result[] = {
/* columns rows colors chars-per-pixel */
"15 15 206 2 ",
"   c gray98",
".  c white",
"X  c #FDFBFB",
"o  c #3B3B3C",
"O  c #1E2022",
"+  c #232628",
"@  c #222527",
"#  c #222324",
"$  c #36393A",
"%  c #5A5F61",
"&  c #F0F0F1",
"*  c #FBFBFB",
"=  c #B3B8B9",
"-  c #3D3F3F",
";  c #AF3030",
":  c #C32929",
">  c #C92C2B",
",  c #CB2E2D",
"<  c #CB2F2D",
"1  c #C82E2D",
"2  c #C62A2A",
"3  c #6E2628",
"4  c #1A2D2F",
"5  c #5F6465",
"6  c #BABDBE",
"7  c #6F7576",
"8  c #7E4849",
"9  c #9F191A",
"0  c #FF3130",
"q  c #C4292A",
"w  c #621F21",
"e  c #641315",
"r  c #5C1013",
"t  c #661215",
"y  c #FC2F2D",
"u  c #DD2C2E",
"i  c #982829",
"p  c #2B1E21",
"a  c #505557",
"s  c #8B9091",
"d  c #0E191A",
"f  c #771E20",
"g  c #FF3334",
"h  c #872426",
"j  c #4E2C2D",
"k  c #293D3E",
"l  c #848D8E",
"z  c #919D9E",
"x  c #8F9394",
"c  c #6F2E2E",
"v  c #B62728",
"b  c #F33130",
"n  c #331B1F",
"m  c #2C2F32",
"M  c #404648",
"N  c #131E1F",
"B  c #762122",
"V  c #FB3231",
"C  c #692223",
"Z  c #432D2F",
"A  c #3A484A",
"S  c gray77",
"D  c #CBCECE",
"F  c #B0B2B2",
"G  c #552F31",
"H  c #A32525",
"J  c #F03130",
"K  c #321C1E",
"L  c #2D3134",
"P  c #45494D",
"I  c #4F5959",
"U  c #7A3C3B",
"Y  c #C02124",
"T  c #B12628",
"R  c #3F1D1F",
"E  c #2E3534",
"W  c #2E2424",
"Q  c #480F10",
"!  c #F02E2E",
"~  c #E62C2E",
"^  c #B2292A",
"/  c #301E20",
"(  c #454A4C",
")  c #747979",
"_  c #A8A9A9",
"`  c #2C2327",
"'  c #C13131",
"]  c #E72D2D",
"[  c #E8302E",
"{  c #3E2024",
"}  c #8A292A",
"|  c #FB3232",
" . c #E02D2C",
".. c #7A2728",
"X. c #1A2827",
"o. c #484E4E",
"O. c #ABAFAE",
"+. c gray99",
"@. c #EDE7E7",
"#. c #363335",
"$. c #7D2123",
"%. c #F53030",
"&. c #DB2E2D",
"*. c #E62D2E",
"=. c #DE2E2D",
"-. c #3E1D1F",
";. c #333131",
":. c #4F5657",
">. c #E0E1E1",
",. c #FBFBFA",
"<. c #FCFCFD",
"1. c #ADB0B0",
"2. c #322F31",
"3. c #B73131",
"4. c #E22C2D",
"5. c #ED3030",
"6. c #462123",
"7. c #8F292A",
"8. c #FC3332",
"9. c #D62C2B",
"0. c #752728",
"q. c #1A2A2A",
"w. c #515758",
"e. c #B2B6B5",
"r. c #5C6263",
"t. c #7B3F3F",
"y. c #B51E1F",
"u. c #FF3131",
"i. c #B52729",
"p. c #441E1F",
"a. c #293132",
"s. c #302121",
"d. c #4F0E0F",
"f. c #F42E2E",
"g. c #E42C2E",
"h. c #A8292A",
"j. c #2F1D1F",
"k. c #4A4D4F",
"l. c #7C8181",
"z. c #111C1D",
"x. c #752022",
"c. c #FE3231",
"v. c #752424",
"b. c #472D2E",
"n. c #354546",
"m. c #BBBBBB",
"M. c #BFC3C2",
"N. c #A3A5A6",
"B. c #5E3031",
"V. c #AB2626",
"C. c #F13130",
"Z. c #331C1E",
"A. c #2D3133",
"S. c #43484B",
"D. c #0F1B1C",
"F. c #761F21",
"G. c #FF3232",
"H. c #7C2324",
"J. c #4A2C2F",
"K. c #2F4142",
"L. c #929B9C",
"P. c #A2ACAE",
"I. c #9EA2A2",
"U. c #652E2F",
"Y. c #AF2628",
"T. c #F23130",
"R. c #2C3033",
"E. c #41474A",
"W. c #656B6C",
"Q. c #7B4343",
"!. c #AB1B1C",
"~. c #FF3030",
"^. c #BE2828",
"/. c #551E1F",
"(. c #581214",
"). c #500F11",
"_. c #5B1113",
"`. c #FA2D2E",
"'. c #E02C2D",
"]. c #9F2928",
"[. c #2D1D20",
"{. c #4C5153",
"}. c #82888A",
"|. c #B0B4B4",
" X c #373637",
".X c #B63132",
"XX c #CB2B2A",
"oX c #CE2E2D",
"OX c #D0302F",
"+X c #D1302F",
"@X c #CE2F2F",
"#X c #CE2C2C",
"$X c #722727",
"%X c #192C2E",
"&X c #595D5E",
"*X c #B6B8B9",
"=X c #F8F6F6",
"-X c #393637",
";X c #1D191B",
":X c #222022",
">X c #211E21",
",X c #211F22",
"<X c #201C1E",
"1X c #323234",
"2X c #53595A",
"3X c #ECEDED",
/* pixels */
"  . X o O + @ @ + # $ % & . * ",
". = - ; : > , < 1 2 3 4 5 6 . ",
"7 8 9 0 q w e r t y u i p a s ",
"d f g h j k l z x c v b n m M ",
"N B V C Z A S D F G H J K L P ",
"I U Y 0 T R E W Q ! ~ ^ / ( ) ",
". _ ` ' ] [ { } |  ...X.o.O.. ",
"+.  @.#.$.%.&.*.=.-.;.:.>.,.<.",
". 1.2.3.4.5.6.7.8.9.0.q.w.e.. ",
"r.t.y.u.i.p.a.s.d.f.g.h.j.k.l.",
"z.x.c.v.b.n.m.M.N.B.V.C.Z.A.S.",
"D.F.G.H.J.K.L.P.I.U.Y.T.Z.R.E.",
"W.Q.!.~.^./.(.)._.`.'.].[.{.}.",
". |. X.XXXoXOX+X@X#X$X%X&X*X. ",
"* . =X-X;X:X>X>X,X<X1X2X3X. * "
};
