/* XPM */
static char *result[] = {
/* columns rows colors chars-per-pixel */
"15 15 181 2 ",
"   c gray98",
".  c white",
"X  c #F2F0F0",
"o  c #303032",
"O  c #202224",
"+  c #232628",
"@  c #222527",
"#  c #242225",
"$  c #373A3B",
"%  c #626869",
"&  c #FBFCFC",
"*  c #A4AAAC",
"=  c #433C3F",
"-  c #B52E2E",
";  c #C32A28",
":  c #C92C2B",
">  c #CB2E2D",
",  c #CC2F2E",
"<  c #C62E2D",
"1  c #C52A29",
"2  c #632626",
"3  c #1D3031",
"4  c #626868",
"5  c #C7CACA",
"6  c #6A6F71",
"7  c #824243",
"8  c #A41A19",
"9  c #FF3132",
"0  c #B72929",
"q  c #641F21",
"w  c #661517",
"e  c #5E1317",
"r  c #6E1718",
"t  c #FF302E",
"y  c #D62B2B",
"u  c #902829",
"i  c #251E1F",
"p  c #5A5C5D",
"a  c #8F9394",
"s  c #060E10",
"d  c #8B2121",
"f  c #FD3432",
"g  c #912527",
"h  c #4F2C2D",
"j  c #263B3D",
"k  c #7B8485",
"l  c #7F8D8F",
"z  c #7F7F80",
"x  c #7D292B",
"c  c #C82A2B",
"v  c #E7302E",
"b  c #291B1C",
"n  c #2D3032",
"m  c #44494C",
"M  c #1B2224",
"N  c #8D2829",
"B  c #DF312D",
"V  c #121A1D",
"C  c #253537",
"Z  c #636666",
"A  c #082729",
"S  c #812325",
"D  c #E3302E",
"F  c #271B1D",
"G  c #35393A",
"H  c #53575A",
"J  c #10171A",
"K  c #8C2425",
"L  c #EF312E",
"P  c #5A2022",
"I  c #3E3031",
"U  c #424E4E",
"Y  c #BCC0BF",
"T  c #C9CFCF",
"R  c #BAB7B8",
"E  c #4C2829",
"W  c #A62728",
"Q  c #DF2F2D",
"!  c #281B1C",
"~  c #333739",
"^  c #505457",
"/  c #2D3536",
"(  c #862F30",
")  c #E12B2A",
"_  c #FA2F30",
"`  c #8F2726",
"'  c #291D1F",
"]  c #351A1C",
"[  c #2E191B",
"{  c #421C1C",
"}  c #E42D2E",
"|  c #F32F2F",
" . c #D22E2C",
".. c #2A1B1D",
"X. c #8A8888",
"o. c #311215",
"O. c #E03333",
"+. c #E5312F",
"@. c #DD312F",
"#. c #E03130",
"$. c #E0322F",
"%. c #E13130",
"&. c #E72D2F",
"*. c #F02D2E",
"=. c #D32E2C",
"-. c #EEF0F0",
";. c #C6C6C6",
":. c #3A1E20",
">. c #331113",
",. c #371517",
"<. c #3A1719",
"1. c #351618",
"2. c #471A1B",
"3. c #F52F2E",
"4. c #D3D6D6",
"5. c #CDD0D1",
"6. c #C8CDCE",
"7. c #BBC0C0",
"8. c #BCC3C3",
"9. c #B1AFB0",
"0. c #52292A",
"q. c #AA2827",
"w. c #807E7F",
"e. c #747A7B",
"r. c #6B797A",
"t. c #7A8384",
"y. c #8D9494",
"u. c #B0B0AF",
"i. c #802325",
"p. c #525759",
"a. c #000203",
"s. c #410D0F",
"d. c #7F1A1C",
"f. c #6D1214",
"g. c #3C1C1E",
"h. c #1D3234",
"j. c #879091",
"k. c #8F9C9D",
"l. c #8B8B8C",
"z. c #712A2A",
"x. c #C12A2A",
"c. c #2D3132",
"v. c #454A4D",
"b. c #5F696A",
"n. c #8C4343",
"m. c #C0221F",
"M. c #FF3535",
"N. c #B22C2C",
"B. c #5A1516",
"V. c #531214",
"C. c #661617",
"Z. c #FB302E",
"A. c #DA2B2A",
"S. c #972928",
"D. c #271D1E",
"F. c #535859",
"G. c #878B8D",
"H. c #9DA6A6",
"J. c #3A3335",
"K. c #BB2F31",
"L. c #CE2E2D",
"P. c #D0302F",
"I. c #D1302F",
"U. c #CC302F",
"Y. c #CD2C2C",
"T. c #672627",
"R. c #1E2F2F",
"E. c #5B6061",
"W. c #C2C6C6",
"Q. c #FBFBFB",
"!. c #EDEBEB",
"~. c #2E2A2C",
"^. c #1F1C1E",
"/. c #221F22",
"(. c #211E21",
"). c #221F21",
"_. c #221C1E",
"`. c #323335",
"'. c #5A6263",
"]. c #F6F7F6",
"[. c gray99",
/* pixels */
"  . X o O + @ @ + # $ %   . & ",
". * = - ; : > , < 1 2 3 4 5 . ",
"6 7 8 9 0 q w e r t y u i p a ",
"s d f g h j k l z x c v b n m ",
"M N B V C Z . . . A S D F G H ",
"J K L P I U Y T R E W Q ! ~ ^ ",
"/ ( ) _ ` ' ] [ { } |  ...~ ^ ",
". X.o.O.+.@.#.$.%.&.*.=...~ ^ ",
". -.;.:.>.,.<.1.2.&.3. ...~ ^ ",
". . . 4.5.6.7.8.9.0.q.Q ! ~ ^ ",
"w.e.r.t.y.u.. . . A i.D F G p.",
"a.s.d.f.g.h.j.k.l.z.x.v b c.v.",
"b.n.m.M.N.P B.V.C.Z.A.S.D.F.G.",
". H.J.K.: L.P.I.U.Y.T.R.E.W.. ",
"Q.. !.~.^./.(.(.)._.`.'.].. [."
};
